<mxfile host="65bd71144e">
    <diagram id="arcNHTHeeFddUFsy979u" name="개념">
        <mxGraphModel dx="1869" dy="521" grid="1" gridSize="10" guides="1" tooltips="1" connect="1" arrows="1" fold="1" page="1" pageScale="1" pageWidth="827" pageHeight="1169" math="0" shadow="0">
            <root>
                <mxCell id="0"/>
                <mxCell id="1" parent="0"/>
                <mxCell id="2VPN5KgTxIObwTc_a8Af-2" value="&lt;h1 style=&quot;margin-top: 0px;&quot;&gt;개념적 설계&lt;span style=&quot;white-space: pre;&quot;&gt;&#x9;&lt;/span&gt;&lt;/h1&gt;&lt;p&gt;ERD 작성(Entity Realationship Diagram)&lt;/p&gt;&lt;p&gt;데이터 베이스 설계의 이해도 높이기&lt;/p&gt;" style="text;html=1;whiteSpace=wrap;overflow=hidden;rounded=0;" vertex="1" parent="1">
                    <mxGeometry x="-110" y="200" width="320" height="190" as="geometry"/>
                </mxCell>
                <mxCell id="2VPN5KgTxIObwTc_a8Af-3" value="&lt;h1 style=&quot;margin-top: 0px;&quot;&gt;데이터베이스 설계&lt;/h1&gt;&lt;div&gt;1. 요구사항 분석 - 요구사항정의서&lt;/div&gt;&lt;div&gt;2. 개념적 설계 - ERD&lt;/div&gt;&lt;div&gt;3. 논리적 설계 - 릴레이션 스키마&lt;/div&gt;&lt;div&gt;4. 물리적 설계 - 테이블 정의서,SQL script 작성&lt;/div&gt;&lt;div&gt;5. 구현 - 테이블 작성&lt;/div&gt;&lt;div&gt;&lt;br&gt;&lt;/div&gt;" style="text;html=1;whiteSpace=wrap;overflow=hidden;rounded=0;" vertex="1" parent="1">
                    <mxGeometry x="-110" y="10" width="320" height="190" as="geometry"/>
                </mxCell>
                <mxCell id="2VPN5KgTxIObwTc_a8Af-4" value="Entity" style="whiteSpace=wrap;html=1;align=center;" vertex="1" parent="1">
                    <mxGeometry x="-110" y="310" width="100" height="40" as="geometry"/>
                </mxCell>
                <mxCell id="2VPN5KgTxIObwTc_a8Af-5" value="entity = 객체=테이블=릴레이션" style="text;html=1;align=center;verticalAlign=middle;whiteSpace=wrap;rounded=0;" vertex="1" parent="1">
                    <mxGeometry y="310" width="200" height="40" as="geometry"/>
                </mxCell>
                <mxCell id="2VPN5KgTxIObwTc_a8Af-6" value="Relationship" style="shape=rhombus;perimeter=rhombusPerimeter;whiteSpace=wrap;html=1;align=center;" vertex="1" parent="1">
                    <mxGeometry x="-120" y="370" width="120" height="60" as="geometry"/>
                </mxCell>
                <mxCell id="2VPN5KgTxIObwTc_a8Af-7" value="관계" style="text;html=1;align=center;verticalAlign=middle;whiteSpace=wrap;rounded=0;" vertex="1" parent="1">
                    <mxGeometry x="10" y="380" width="200" height="40" as="geometry"/>
                </mxCell>
                <mxCell id="2VPN5KgTxIObwTc_a8Af-8" value="Attribute" style="ellipse;whiteSpace=wrap;html=1;align=center;" vertex="1" parent="1">
                    <mxGeometry x="-110" y="450" width="100" height="40" as="geometry"/>
                </mxCell>
                <mxCell id="2VPN5KgTxIObwTc_a8Af-9" value="키(기본키)속성" style="text;html=1;align=center;verticalAlign=middle;whiteSpace=wrap;rounded=0;" vertex="1" parent="1">
                    <mxGeometry x="10" y="520" width="200" height="40" as="geometry"/>
                </mxCell>
                <mxCell id="2VPN5KgTxIObwTc_a8Af-10" value="Attribute" style="ellipse;whiteSpace=wrap;html=1;align=center;fontStyle=4;" vertex="1" parent="1">
                    <mxGeometry x="-110" y="520" width="100" height="40" as="geometry"/>
                </mxCell>
                <mxCell id="2VPN5KgTxIObwTc_a8Af-11" value="속성" style="text;html=1;align=center;verticalAlign=middle;whiteSpace=wrap;rounded=0;" vertex="1" parent="1">
                    <mxGeometry x="10" y="450" width="200" height="40" as="geometry"/>
                </mxCell>
                <mxCell id="2VPN5KgTxIObwTc_a8Af-12" value="Attribute" style="ellipse;shape=doubleEllipse;margin=3;whiteSpace=wrap;html=1;align=center;" vertex="1" parent="1">
                    <mxGeometry x="-110" y="585" width="100" height="40" as="geometry"/>
                </mxCell>
                <mxCell id="2VPN5KgTxIObwTc_a8Af-13" value="multi value(취미: 야구,독서,수영..)" style="text;html=1;align=center;verticalAlign=middle;whiteSpace=wrap;rounded=0;" vertex="1" parent="1">
                    <mxGeometry x="10" y="585" width="200" height="40" as="geometry"/>
                </mxCell>
                <mxCell id="2VPN5KgTxIObwTc_a8Af-14" value="Relationship" style="shape=rhombus;perimeter=rhombusPerimeter;whiteSpace=wrap;html=1;align=center;" vertex="1" parent="1">
                    <mxGeometry x="50" y="640" width="120" height="60" as="geometry"/>
                </mxCell>
                <mxCell id="2VPN5KgTxIObwTc_a8Af-18" style="edgeStyle=none;html=1;exitX=1;exitY=0.5;exitDx=0;exitDy=0;entryX=1;entryY=0.5;entryDx=0;entryDy=0;" edge="1" parent="1" source="2VPN5KgTxIObwTc_a8Af-15" target="2VPN5KgTxIObwTc_a8Af-15">
                    <mxGeometry relative="1" as="geometry"/>
                </mxCell>
                <mxCell id="2VPN5KgTxIObwTc_a8Af-15" value="Entity" style="whiteSpace=wrap;html=1;align=center;" vertex="1" parent="1">
                    <mxGeometry x="-110" y="650" width="100" height="40" as="geometry"/>
                </mxCell>
                <mxCell id="2VPN5KgTxIObwTc_a8Af-16" value="Entity" style="whiteSpace=wrap;html=1;align=center;" vertex="1" parent="1">
                    <mxGeometry x="230" y="650" width="100" height="40" as="geometry"/>
                </mxCell>
                <mxCell id="2VPN5KgTxIObwTc_a8Af-29" style="edgeStyle=none;html=1;exitX=1;exitY=0.5;exitDx=0;exitDy=0;entryX=0;entryY=0.5;entryDx=0;entryDy=0;endArrow=ERmany;endFill=0;" edge="1" parent="1" source="2VPN5KgTxIObwTc_a8Af-21" target="2VPN5KgTxIObwTc_a8Af-25">
                    <mxGeometry relative="1" as="geometry"/>
                </mxCell>
                <mxCell id="2VPN5KgTxIObwTc_a8Af-21" value="Relationship" style="shape=rhombus;perimeter=rhombusPerimeter;whiteSpace=wrap;html=1;align=center;" vertex="1" parent="1">
                    <mxGeometry x="50" y="720" width="120" height="60" as="geometry"/>
                </mxCell>
                <mxCell id="2VPN5KgTxIObwTc_a8Af-22" style="edgeStyle=none;html=1;exitX=1;exitY=0.5;exitDx=0;exitDy=0;entryX=1;entryY=0.5;entryDx=0;entryDy=0;" edge="1" source="2VPN5KgTxIObwTc_a8Af-23" target="2VPN5KgTxIObwTc_a8Af-23" parent="1">
                    <mxGeometry relative="1" as="geometry"/>
                </mxCell>
                <mxCell id="2VPN5KgTxIObwTc_a8Af-23" value="Entity" style="whiteSpace=wrap;html=1;align=center;" vertex="1" parent="1">
                    <mxGeometry x="-110" y="730" width="100" height="40" as="geometry"/>
                </mxCell>
                <mxCell id="2VPN5KgTxIObwTc_a8Af-25" value="Entity" style="whiteSpace=wrap;html=1;align=center;" vertex="1" parent="1">
                    <mxGeometry x="230" y="730" width="100" height="40" as="geometry"/>
                </mxCell>
                <mxCell id="2VPN5KgTxIObwTc_a8Af-26" value="" style="edgeStyle=entityRelationEdgeStyle;fontSize=12;html=1;endArrow=none;endFill=0;entryX=0;entryY=0.5;entryDx=0;entryDy=0;exitX=1;exitY=0.5;exitDx=0;exitDy=0;" edge="1" source="2VPN5KgTxIObwTc_a8Af-23" target="2VPN5KgTxIObwTc_a8Af-21" parent="1">
                    <mxGeometry width="100" height="100" relative="1" as="geometry">
                        <mxPoint x="90" y="670" as="sourcePoint"/>
                        <mxPoint x="200" y="580" as="targetPoint"/>
                        <Array as="points">
                            <mxPoint x="160" y="630"/>
                            <mxPoint x="140" y="660"/>
                        </Array>
                    </mxGeometry>
                </mxCell>
                <mxCell id="2VPN5KgTxIObwTc_a8Af-31" value="" style="endArrow=none;html=1;rounded=0;exitX=1;exitY=0.5;exitDx=0;exitDy=0;entryX=0;entryY=0.5;entryDx=0;entryDy=0;" edge="1" parent="1" source="2VPN5KgTxIObwTc_a8Af-14" target="2VPN5KgTxIObwTc_a8Af-16">
                    <mxGeometry relative="1" as="geometry">
                        <mxPoint x="170" y="710" as="sourcePoint"/>
                        <mxPoint x="240" y="760" as="targetPoint"/>
                        <Array as="points"/>
                    </mxGeometry>
                </mxCell>
                <mxCell id="2VPN5KgTxIObwTc_a8Af-32" value="1" style="resizable=0;html=1;whiteSpace=wrap;align=right;verticalAlign=bottom;" connectable="0" vertex="1" parent="2VPN5KgTxIObwTc_a8Af-31">
                    <mxGeometry x="1" relative="1" as="geometry"/>
                </mxCell>
                <mxCell id="2VPN5KgTxIObwTc_a8Af-33" value="" style="endArrow=none;html=1;rounded=0;entryX=1;entryY=0.5;entryDx=0;entryDy=0;" edge="1" parent="1" source="2VPN5KgTxIObwTc_a8Af-14" target="2VPN5KgTxIObwTc_a8Af-15">
                    <mxGeometry relative="1" as="geometry">
                        <mxPoint x="80" y="760" as="sourcePoint"/>
                        <mxPoint x="-10" y="670" as="targetPoint"/>
                    </mxGeometry>
                </mxCell>
                <mxCell id="2VPN5KgTxIObwTc_a8Af-34" value="1" style="resizable=0;html=1;whiteSpace=wrap;align=right;verticalAlign=bottom;" connectable="0" vertex="1" parent="2VPN5KgTxIObwTc_a8Af-33">
                    <mxGeometry x="1" relative="1" as="geometry">
                        <mxPoint x="10" as="offset"/>
                    </mxGeometry>
                </mxCell>
                <mxCell id="2VPN5KgTxIObwTc_a8Af-35" value="1" style="resizable=0;html=1;whiteSpace=wrap;align=right;verticalAlign=bottom;" connectable="0" vertex="1" parent="2VPN5KgTxIObwTc_a8Af-33">
                    <mxGeometry x="1" relative="1" as="geometry">
                        <mxPoint x="10" y="80" as="offset"/>
                    </mxGeometry>
                </mxCell>
                <mxCell id="2VPN5KgTxIObwTc_a8Af-44" value="M" style="resizable=0;html=1;whiteSpace=wrap;align=right;verticalAlign=bottom;" connectable="0" vertex="1" parent="2VPN5KgTxIObwTc_a8Af-33">
                    <mxGeometry x="1" relative="1" as="geometry">
                        <mxPoint x="14" y="160" as="offset"/>
                    </mxGeometry>
                </mxCell>
                <mxCell id="2VPN5KgTxIObwTc_a8Af-45" value="N" style="resizable=0;html=1;whiteSpace=wrap;align=right;verticalAlign=bottom;" connectable="0" vertex="1" parent="2VPN5KgTxIObwTc_a8Af-33">
                    <mxGeometry x="1" relative="1" as="geometry">
                        <mxPoint x="240" y="160" as="offset"/>
                    </mxGeometry>
                </mxCell>
                <mxCell id="2VPN5KgTxIObwTc_a8Af-46" value="N" style="resizable=0;html=1;whiteSpace=wrap;align=right;verticalAlign=bottom;" connectable="0" vertex="1" parent="2VPN5KgTxIObwTc_a8Af-33">
                    <mxGeometry x="1" relative="1" as="geometry">
                        <mxPoint x="238" y="78" as="offset"/>
                    </mxGeometry>
                </mxCell>
                <mxCell id="2VPN5KgTxIObwTc_a8Af-38" style="edgeStyle=none;html=1;exitX=1;exitY=0.5;exitDx=0;exitDy=0;entryX=0;entryY=0.5;entryDx=0;entryDy=0;endArrow=ERmany;endFill=0;" edge="1" source="2VPN5KgTxIObwTc_a8Af-39" target="2VPN5KgTxIObwTc_a8Af-42" parent="1">
                    <mxGeometry relative="1" as="geometry"/>
                </mxCell>
                <mxCell id="2VPN5KgTxIObwTc_a8Af-39" value="Relationship" style="shape=rhombus;perimeter=rhombusPerimeter;whiteSpace=wrap;html=1;align=center;" vertex="1" parent="1">
                    <mxGeometry x="50" y="800" width="120" height="60" as="geometry"/>
                </mxCell>
                <mxCell id="2VPN5KgTxIObwTc_a8Af-40" style="edgeStyle=none;html=1;exitX=1;exitY=0.5;exitDx=0;exitDy=0;entryX=1;entryY=0.5;entryDx=0;entryDy=0;" edge="1" source="2VPN5KgTxIObwTc_a8Af-41" target="2VPN5KgTxIObwTc_a8Af-41" parent="1">
                    <mxGeometry relative="1" as="geometry"/>
                </mxCell>
                <mxCell id="2VPN5KgTxIObwTc_a8Af-41" value="Entity" style="whiteSpace=wrap;html=1;align=center;" vertex="1" parent="1">
                    <mxGeometry x="-110" y="810" width="100" height="40" as="geometry"/>
                </mxCell>
                <mxCell id="2VPN5KgTxIObwTc_a8Af-42" value="Entity" style="whiteSpace=wrap;html=1;align=center;" vertex="1" parent="1">
                    <mxGeometry x="230" y="810" width="100" height="40" as="geometry"/>
                </mxCell>
                <mxCell id="2VPN5KgTxIObwTc_a8Af-43" value="" style="edgeStyle=entityRelationEdgeStyle;fontSize=12;html=1;endArrow=none;endFill=0;entryX=0;entryY=0.5;entryDx=0;entryDy=0;exitX=1;exitY=0.5;exitDx=0;exitDy=0;" edge="1" source="2VPN5KgTxIObwTc_a8Af-41" target="2VPN5KgTxIObwTc_a8Af-39" parent="1">
                    <mxGeometry width="100" height="100" relative="1" as="geometry">
                        <mxPoint x="90" y="750" as="sourcePoint"/>
                        <mxPoint x="200" y="660" as="targetPoint"/>
                        <Array as="points">
                            <mxPoint x="160" y="710"/>
                            <mxPoint x="140" y="740"/>
                        </Array>
                    </mxGeometry>
                </mxCell>
                <mxCell id="CZfmuVM9vOTyuz9LOqK--4" style="edgeStyle=none;html=1;exitX=0.5;exitY=0;exitDx=0;exitDy=0;entryX=0.5;entryY=1;entryDx=0;entryDy=0;endArrow=none;endFill=0;" edge="1" parent="1" source="CZfmuVM9vOTyuz9LOqK--1" target="CZfmuVM9vOTyuz9LOqK--2">
                    <mxGeometry relative="1" as="geometry"/>
                </mxCell>
                <mxCell id="CZfmuVM9vOTyuz9LOqK--1" value="배송지" style="ellipse;whiteSpace=wrap;html=1;align=center;" vertex="1" parent="1">
                    <mxGeometry x="440" y="560" width="100" height="40" as="geometry"/>
                </mxCell>
                <mxCell id="CZfmuVM9vOTyuz9LOqK--2" value="배송지" style="ellipse;whiteSpace=wrap;html=1;align=center;" vertex="1" parent="1">
                    <mxGeometry x="364" y="500" width="100" height="40" as="geometry"/>
                </mxCell>
                <mxCell id="CZfmuVM9vOTyuz9LOqK--5" style="edgeStyle=none;html=1;exitX=0.5;exitY=1;exitDx=0;exitDy=0;entryX=0.5;entryY=0;entryDx=0;entryDy=0;endArrow=none;endFill=0;" edge="1" parent="1" source="CZfmuVM9vOTyuz9LOqK--3" target="CZfmuVM9vOTyuz9LOqK--1">
                    <mxGeometry relative="1" as="geometry"/>
                </mxCell>
                <mxCell id="CZfmuVM9vOTyuz9LOqK--3" value="배송지" style="ellipse;whiteSpace=wrap;html=1;align=center;" vertex="1" parent="1">
                    <mxGeometry x="510" y="500" width="100" height="40" as="geometry"/>
                </mxCell>
            </root>
        </mxGraphModel>
    </diagram>
    <diagram id="qmEe2hlEfBavSYjpgGf1" name="한빛 ERD">
        <mxGraphModel dx="1226" dy="613" grid="1" gridSize="10" guides="1" tooltips="1" connect="1" arrows="1" fold="1" page="1" pageScale="1" pageWidth="827" pageHeight="1169" math="0" shadow="0">
            <root>
                <mxCell id="0"/>
                <mxCell id="1" parent="0"/>
                <mxCell id="rP3fQOl7Gl0Hr2_7MUwA-81" style="edgeStyle=none;html=1;exitX=1;exitY=0.5;exitDx=0;exitDy=0;entryX=0;entryY=0.5;entryDx=0;entryDy=0;endArrow=none;endFill=0;" edge="1" parent="1" source="rP3fQOl7Gl0Hr2_7MUwA-3" target="rP3fQOl7Gl0Hr2_7MUwA-72">
                    <mxGeometry relative="1" as="geometry"/>
                </mxCell>
                <mxCell id="rP3fQOl7Gl0Hr2_7MUwA-3" value="아이디" style="ellipse;whiteSpace=wrap;html=1;align=center;fontStyle=4;" vertex="1" parent="1">
                    <mxGeometry x="20" y="40" width="100" height="40" as="geometry"/>
                </mxCell>
                <mxCell id="rP3fQOl7Gl0Hr2_7MUwA-82" style="edgeStyle=none;html=1;exitX=1;exitY=0.5;exitDx=0;exitDy=0;entryX=0;entryY=0.5;entryDx=0;entryDy=0;endArrow=none;endFill=0;" edge="1" parent="1" source="rP3fQOl7Gl0Hr2_7MUwA-7" target="rP3fQOl7Gl0Hr2_7MUwA-72">
                    <mxGeometry relative="1" as="geometry"/>
                </mxCell>
                <mxCell id="rP3fQOl7Gl0Hr2_7MUwA-7" value="비밀번호" style="ellipse;whiteSpace=wrap;html=1;align=center;" vertex="1" parent="1">
                    <mxGeometry x="20" y="90" width="100" height="40" as="geometry"/>
                </mxCell>
                <mxCell id="rP3fQOl7Gl0Hr2_7MUwA-83" style="edgeStyle=none;html=1;exitX=1;exitY=0.5;exitDx=0;exitDy=0;endArrow=none;endFill=0;" edge="1" parent="1" source="rP3fQOl7Gl0Hr2_7MUwA-8">
                    <mxGeometry relative="1" as="geometry">
                        <mxPoint x="180" y="160" as="targetPoint"/>
                    </mxGeometry>
                </mxCell>
                <mxCell id="rP3fQOl7Gl0Hr2_7MUwA-8" value="이름" style="ellipse;whiteSpace=wrap;html=1;align=center;" vertex="1" parent="1">
                    <mxGeometry x="20" y="140" width="100" height="40" as="geometry"/>
                </mxCell>
                <mxCell id="rP3fQOl7Gl0Hr2_7MUwA-85" style="edgeStyle=none;html=1;exitX=1;exitY=0.5;exitDx=0;exitDy=0;entryX=0;entryY=0.5;entryDx=0;entryDy=0;endArrow=none;endFill=0;" edge="1" parent="1" source="rP3fQOl7Gl0Hr2_7MUwA-9" target="rP3fQOl7Gl0Hr2_7MUwA-72">
                    <mxGeometry relative="1" as="geometry"/>
                </mxCell>
                <mxCell id="rP3fQOl7Gl0Hr2_7MUwA-9" value="나이" style="ellipse;whiteSpace=wrap;html=1;align=center;" vertex="1" parent="1">
                    <mxGeometry x="20" y="190" width="100" height="40" as="geometry"/>
                </mxCell>
                <mxCell id="rP3fQOl7Gl0Hr2_7MUwA-86" style="edgeStyle=none;html=1;exitX=1;exitY=0.5;exitDx=0;exitDy=0;entryX=0;entryY=0.5;entryDx=0;entryDy=0;endArrow=none;endFill=0;" edge="1" parent="1" source="rP3fQOl7Gl0Hr2_7MUwA-10" target="rP3fQOl7Gl0Hr2_7MUwA-72">
                    <mxGeometry relative="1" as="geometry"/>
                </mxCell>
                <mxCell id="rP3fQOl7Gl0Hr2_7MUwA-10" value="직업" style="ellipse;whiteSpace=wrap;html=1;align=center;" vertex="1" parent="1">
                    <mxGeometry x="20" y="240" width="100" height="40" as="geometry"/>
                </mxCell>
                <mxCell id="rP3fQOl7Gl0Hr2_7MUwA-17" value="상품" style="whiteSpace=wrap;html=1;align=center;" vertex="1" parent="1">
                    <mxGeometry x="577" y="200" width="100" height="40" as="geometry"/>
                </mxCell>
                <mxCell id="rP3fQOl7Gl0Hr2_7MUwA-21" style="edgeStyle=none;html=1;exitX=0;exitY=0.5;exitDx=0;exitDy=0;entryX=1;entryY=0.5;entryDx=0;entryDy=0;endArrow=none;endFill=0;" edge="1" parent="1" source="rP3fQOl7Gl0Hr2_7MUwA-18" target="rP3fQOl7Gl0Hr2_7MUwA-17">
                    <mxGeometry relative="1" as="geometry"/>
                </mxCell>
                <mxCell id="rP3fQOl7Gl0Hr2_7MUwA-18" value="상품번호" style="ellipse;whiteSpace=wrap;html=1;align=center;fontStyle=4;" vertex="1" parent="1">
                    <mxGeometry x="727" y="120" width="100" height="50" as="geometry"/>
                </mxCell>
                <mxCell id="rP3fQOl7Gl0Hr2_7MUwA-23" style="edgeStyle=none;html=1;exitX=0;exitY=0.5;exitDx=0;exitDy=0;endArrow=none;endFill=0;" edge="1" parent="1" source="rP3fQOl7Gl0Hr2_7MUwA-19">
                    <mxGeometry relative="1" as="geometry">
                        <mxPoint x="680" y="210" as="targetPoint"/>
                    </mxGeometry>
                </mxCell>
                <mxCell id="rP3fQOl7Gl0Hr2_7MUwA-19" value="상품명" style="ellipse;whiteSpace=wrap;html=1;align=center;" vertex="1" parent="1">
                    <mxGeometry x="727" y="180" width="100" height="45" as="geometry"/>
                </mxCell>
                <mxCell id="rP3fQOl7Gl0Hr2_7MUwA-24" style="edgeStyle=none;html=1;exitX=0;exitY=0.5;exitDx=0;exitDy=0;endArrow=none;endFill=0;" edge="1" parent="1" source="rP3fQOl7Gl0Hr2_7MUwA-20">
                    <mxGeometry relative="1" as="geometry">
                        <mxPoint x="680" y="220" as="targetPoint"/>
                    </mxGeometry>
                </mxCell>
                <mxCell id="rP3fQOl7Gl0Hr2_7MUwA-20" value="재고량" style="ellipse;whiteSpace=wrap;html=1;align=center;" vertex="1" parent="1">
                    <mxGeometry x="727" y="290" width="100" height="50" as="geometry"/>
                </mxCell>
                <mxCell id="rP3fQOl7Gl0Hr2_7MUwA-25" style="edgeStyle=none;html=1;exitX=0;exitY=0.5;exitDx=0;exitDy=0;entryX=1;entryY=0.5;entryDx=0;entryDy=0;endArrow=none;endFill=0;" edge="1" parent="1" source="rP3fQOl7Gl0Hr2_7MUwA-22" target="rP3fQOl7Gl0Hr2_7MUwA-17">
                    <mxGeometry relative="1" as="geometry"/>
                </mxCell>
                <mxCell id="rP3fQOl7Gl0Hr2_7MUwA-22" value="단가" style="ellipse;whiteSpace=wrap;html=1;align=center;" vertex="1" parent="1">
                    <mxGeometry x="727" y="340" width="100" height="50" as="geometry"/>
                </mxCell>
                <mxCell id="rP3fQOl7Gl0Hr2_7MUwA-36" value="제조업체" style="whiteSpace=wrap;html=1;align=center;" vertex="1" parent="1">
                    <mxGeometry x="577" y="730" width="100" height="40" as="geometry"/>
                </mxCell>
                <mxCell id="rP3fQOl7Gl0Hr2_7MUwA-37" style="edgeStyle=none;html=1;exitX=0;exitY=0.5;exitDx=0;exitDy=0;entryX=1;entryY=0.5;entryDx=0;entryDy=0;endArrow=none;endFill=0;" edge="1" source="rP3fQOl7Gl0Hr2_7MUwA-38" target="rP3fQOl7Gl0Hr2_7MUwA-36" parent="1">
                    <mxGeometry relative="1" as="geometry"/>
                </mxCell>
                <mxCell id="rP3fQOl7Gl0Hr2_7MUwA-38" value="업체코드" style="ellipse;whiteSpace=wrap;html=1;align=center;fontStyle=4;" vertex="1" parent="1">
                    <mxGeometry x="717" y="650" width="100" height="50" as="geometry"/>
                </mxCell>
                <mxCell id="rP3fQOl7Gl0Hr2_7MUwA-39" style="edgeStyle=none;html=1;exitX=0;exitY=0.5;exitDx=0;exitDy=0;endArrow=none;endFill=0;" edge="1" source="rP3fQOl7Gl0Hr2_7MUwA-40" parent="1">
                    <mxGeometry relative="1" as="geometry">
                        <mxPoint x="677" y="750" as="targetPoint"/>
                    </mxGeometry>
                </mxCell>
                <mxCell id="rP3fQOl7Gl0Hr2_7MUwA-40" value="전화번호" style="ellipse;whiteSpace=wrap;html=1;align=center;" vertex="1" parent="1">
                    <mxGeometry x="717" y="710" width="100" height="45" as="geometry"/>
                </mxCell>
                <mxCell id="rP3fQOl7Gl0Hr2_7MUwA-41" style="edgeStyle=none;html=1;exitX=0;exitY=0.5;exitDx=0;exitDy=0;endArrow=none;endFill=0;" edge="1" source="rP3fQOl7Gl0Hr2_7MUwA-42" parent="1">
                    <mxGeometry relative="1" as="geometry">
                        <mxPoint x="677" y="750" as="targetPoint"/>
                    </mxGeometry>
                </mxCell>
                <mxCell id="rP3fQOl7Gl0Hr2_7MUwA-42" value="위치" style="ellipse;whiteSpace=wrap;html=1;align=center;" vertex="1" parent="1">
                    <mxGeometry x="717" y="760" width="100" height="50" as="geometry"/>
                </mxCell>
                <mxCell id="rP3fQOl7Gl0Hr2_7MUwA-43" style="edgeStyle=none;html=1;exitX=0;exitY=0.5;exitDx=0;exitDy=0;entryX=1;entryY=0.5;entryDx=0;entryDy=0;endArrow=none;endFill=0;" edge="1" source="rP3fQOl7Gl0Hr2_7MUwA-44" target="rP3fQOl7Gl0Hr2_7MUwA-36" parent="1">
                    <mxGeometry relative="1" as="geometry"/>
                </mxCell>
                <mxCell id="rP3fQOl7Gl0Hr2_7MUwA-44" value="담당자" style="ellipse;whiteSpace=wrap;html=1;align=center;" vertex="1" parent="1">
                    <mxGeometry x="717" y="820" width="100" height="50" as="geometry"/>
                </mxCell>
                <mxCell id="rP3fQOl7Gl0Hr2_7MUwA-49" value="게시글" style="whiteSpace=wrap;html=1;align=center;" vertex="1" parent="1">
                    <mxGeometry x="180" y="650" width="100" height="40" as="geometry"/>
                </mxCell>
                <mxCell id="rP3fQOl7Gl0Hr2_7MUwA-90" style="edgeStyle=none;html=1;exitX=1;exitY=0.5;exitDx=0;exitDy=0;entryX=0;entryY=0.5;entryDx=0;entryDy=0;endArrow=none;endFill=0;" edge="1" parent="1" source="rP3fQOl7Gl0Hr2_7MUwA-50" target="rP3fQOl7Gl0Hr2_7MUwA-49">
                    <mxGeometry relative="1" as="geometry"/>
                </mxCell>
                <mxCell id="rP3fQOl7Gl0Hr2_7MUwA-50" value="글번호" style="ellipse;whiteSpace=wrap;html=1;align=center;fontStyle=4;" vertex="1" parent="1">
                    <mxGeometry x="20" y="585" width="100" height="40" as="geometry"/>
                </mxCell>
                <mxCell id="rP3fQOl7Gl0Hr2_7MUwA-91" style="edgeStyle=none;html=1;exitX=1;exitY=0.5;exitDx=0;exitDy=0;endArrow=none;endFill=0;" edge="1" parent="1" source="rP3fQOl7Gl0Hr2_7MUwA-51">
                    <mxGeometry relative="1" as="geometry">
                        <mxPoint x="180" y="670" as="targetPoint"/>
                    </mxGeometry>
                </mxCell>
                <mxCell id="rP3fQOl7Gl0Hr2_7MUwA-51" value="제목" style="ellipse;whiteSpace=wrap;html=1;align=center;" vertex="1" parent="1">
                    <mxGeometry x="20" y="635" width="100" height="40" as="geometry"/>
                </mxCell>
                <mxCell id="rP3fQOl7Gl0Hr2_7MUwA-92" style="edgeStyle=none;html=1;exitX=1;exitY=0.5;exitDx=0;exitDy=0;endArrow=none;endFill=0;" edge="1" parent="1" source="rP3fQOl7Gl0Hr2_7MUwA-52">
                    <mxGeometry relative="1" as="geometry">
                        <mxPoint x="180" y="670" as="targetPoint"/>
                    </mxGeometry>
                </mxCell>
                <mxCell id="rP3fQOl7Gl0Hr2_7MUwA-52" value="내용" style="ellipse;whiteSpace=wrap;html=1;align=center;" vertex="1" parent="1">
                    <mxGeometry x="20" y="685" width="100" height="40" as="geometry"/>
                </mxCell>
                <mxCell id="rP3fQOl7Gl0Hr2_7MUwA-93" style="edgeStyle=none;html=1;exitX=1;exitY=0.5;exitDx=0;exitDy=0;entryX=0;entryY=0.5;entryDx=0;entryDy=0;endArrow=none;endFill=0;" edge="1" parent="1" source="rP3fQOl7Gl0Hr2_7MUwA-53" target="rP3fQOl7Gl0Hr2_7MUwA-49">
                    <mxGeometry relative="1" as="geometry"/>
                </mxCell>
                <mxCell id="rP3fQOl7Gl0Hr2_7MUwA-53" value="작성일" style="ellipse;whiteSpace=wrap;html=1;align=center;" vertex="1" parent="1">
                    <mxGeometry x="20" y="735" width="100" height="40" as="geometry"/>
                </mxCell>
                <mxCell id="rP3fQOl7Gl0Hr2_7MUwA-72" value="회원" style="whiteSpace=wrap;html=1;align=center;" vertex="1" parent="1">
                    <mxGeometry x="180" y="140" width="100" height="40" as="geometry"/>
                </mxCell>
                <mxCell id="rP3fQOl7Gl0Hr2_7MUwA-73" value="" style="endArrow=none;html=1;rounded=0;dashed=1;dashPattern=1 2;exitX=1;exitY=0.5;exitDx=0;exitDy=0;entryX=0;entryY=0.5;entryDx=0;entryDy=0;" edge="1" parent="1" source="rP3fQOl7Gl0Hr2_7MUwA-71" target="rP3fQOl7Gl0Hr2_7MUwA-17">
                    <mxGeometry relative="1" as="geometry">
                        <mxPoint x="390" y="360" as="sourcePoint"/>
                        <mxPoint x="490" y="160" as="targetPoint"/>
                    </mxGeometry>
                </mxCell>
                <mxCell id="rP3fQOl7Gl0Hr2_7MUwA-75" value="N" style="resizable=0;html=1;whiteSpace=wrap;align=right;verticalAlign=bottom;" connectable="0" vertex="1" parent="rP3fQOl7Gl0Hr2_7MUwA-73">
                    <mxGeometry x="1" relative="1" as="geometry"/>
                </mxCell>
                <mxCell id="rP3fQOl7Gl0Hr2_7MUwA-78" value="" style="endArrow=none;html=1;rounded=0;dashed=1;dashPattern=1 2;exitX=1;exitY=0.5;exitDx=0;exitDy=0;entryX=0;entryY=0.5;entryDx=0;entryDy=0;" edge="1" parent="1" source="rP3fQOl7Gl0Hr2_7MUwA-72" target="rP3fQOl7Gl0Hr2_7MUwA-71">
                    <mxGeometry relative="1" as="geometry">
                        <mxPoint x="280" y="160" as="sourcePoint"/>
                        <mxPoint x="587" y="160" as="targetPoint"/>
                    </mxGeometry>
                </mxCell>
                <mxCell id="rP3fQOl7Gl0Hr2_7MUwA-79" value="M" style="resizable=0;html=1;whiteSpace=wrap;align=left;verticalAlign=bottom;" connectable="0" vertex="1" parent="rP3fQOl7Gl0Hr2_7MUwA-78">
                    <mxGeometry x="-1" relative="1" as="geometry"/>
                </mxCell>
                <mxCell id="rP3fQOl7Gl0Hr2_7MUwA-71" value="주문" style="shape=rhombus;perimeter=rhombusPerimeter;whiteSpace=wrap;html=1;align=center;" vertex="1" parent="1">
                    <mxGeometry x="370" y="190" width="120" height="60" as="geometry"/>
                </mxCell>
                <mxCell id="rP3fQOl7Gl0Hr2_7MUwA-96" style="edgeStyle=none;html=1;exitX=0.5;exitY=1;exitDx=0;exitDy=0;entryX=0.5;entryY=0;entryDx=0;entryDy=0;endArrow=none;endFill=0;" edge="1" parent="1" source="rP3fQOl7Gl0Hr2_7MUwA-77" target="rP3fQOl7Gl0Hr2_7MUwA-36">
                    <mxGeometry relative="1" as="geometry"/>
                </mxCell>
                <mxCell id="rP3fQOl7Gl0Hr2_7MUwA-77" value="공급" style="shape=rhombus;perimeter=rhombusPerimeter;whiteSpace=wrap;html=1;align=center;" vertex="1" parent="1">
                    <mxGeometry x="567" y="510" width="120" height="60" as="geometry"/>
                </mxCell>
                <mxCell id="rP3fQOl7Gl0Hr2_7MUwA-94" value="" style="shape=link;html=1;rounded=0;entryX=0.5;entryY=1;entryDx=0;entryDy=0;exitX=0.5;exitY=0;exitDx=0;exitDy=0;" edge="1" parent="1" source="rP3fQOl7Gl0Hr2_7MUwA-77" target="rP3fQOl7Gl0Hr2_7MUwA-17">
                    <mxGeometry relative="1" as="geometry">
                        <mxPoint x="380" y="270" as="sourcePoint"/>
                        <mxPoint x="540" y="270" as="targetPoint"/>
                    </mxGeometry>
                </mxCell>
                <mxCell id="rP3fQOl7Gl0Hr2_7MUwA-95" value="N" style="resizable=0;html=1;whiteSpace=wrap;align=right;verticalAlign=bottom;" connectable="0" vertex="1" parent="rP3fQOl7Gl0Hr2_7MUwA-94">
                    <mxGeometry x="1" relative="1" as="geometry">
                        <mxPoint x="-6" y="20" as="offset"/>
                    </mxGeometry>
                </mxCell>
                <mxCell id="rP3fQOl7Gl0Hr2_7MUwA-97" value="1" style="resizable=0;html=1;whiteSpace=wrap;align=right;verticalAlign=bottom;" connectable="0" vertex="1" parent="rP3fQOl7Gl0Hr2_7MUwA-94">
                    <mxGeometry x="1" relative="1" as="geometry">
                        <mxPoint x="-17" y="550" as="offset"/>
                    </mxGeometry>
                </mxCell>
                <mxCell id="rP3fQOl7Gl0Hr2_7MUwA-100" value="" style="endArrow=none;html=1;rounded=0;exitX=0.5;exitY=1;exitDx=0;exitDy=0;entryX=0.5;entryY=0;entryDx=0;entryDy=0;" edge="1" parent="1" source="rP3fQOl7Gl0Hr2_7MUwA-72" target="rP3fQOl7Gl0Hr2_7MUwA-49">
                    <mxGeometry relative="1" as="geometry">
                        <mxPoint x="140" y="290" as="sourcePoint"/>
                        <mxPoint x="300" y="290" as="targetPoint"/>
                    </mxGeometry>
                </mxCell>
                <mxCell id="rP3fQOl7Gl0Hr2_7MUwA-101" value="1" style="resizable=0;html=1;whiteSpace=wrap;align=left;verticalAlign=bottom;" connectable="0" vertex="1" parent="rP3fQOl7Gl0Hr2_7MUwA-100">
                    <mxGeometry x="-1" relative="1" as="geometry">
                        <mxPoint x="4" y="19" as="offset"/>
                    </mxGeometry>
                </mxCell>
                <mxCell id="rP3fQOl7Gl0Hr2_7MUwA-102" value="N" style="resizable=0;html=1;whiteSpace=wrap;align=right;verticalAlign=bottom;" connectable="0" vertex="1" parent="rP3fQOl7Gl0Hr2_7MUwA-100">
                    <mxGeometry x="1" relative="1" as="geometry">
                        <mxPoint x="14" y="-3" as="offset"/>
                    </mxGeometry>
                </mxCell>
                <mxCell id="rP3fQOl7Gl0Hr2_7MUwA-98" value="작성" style="shape=rhombus;perimeter=rhombusPerimeter;whiteSpace=wrap;html=1;align=center;" vertex="1" parent="1">
                    <mxGeometry x="170" y="260" width="120" height="60" as="geometry"/>
                </mxCell>
                <mxCell id="rP3fQOl7Gl0Hr2_7MUwA-114" style="edgeStyle=none;html=1;exitX=0;exitY=0.5;exitDx=0;exitDy=0;entryX=1;entryY=0.5;entryDx=0;entryDy=0;endArrow=none;endFill=0;" edge="1" parent="1" source="rP3fQOl7Gl0Hr2_7MUwA-103" target="rP3fQOl7Gl0Hr2_7MUwA-77">
                    <mxGeometry relative="1" as="geometry"/>
                </mxCell>
                <mxCell id="rP3fQOl7Gl0Hr2_7MUwA-103" value="공급일자" style="ellipse;whiteSpace=wrap;html=1;align=center;" vertex="1" parent="1">
                    <mxGeometry x="727" y="460" width="100" height="40" as="geometry"/>
                </mxCell>
                <mxCell id="rP3fQOl7Gl0Hr2_7MUwA-115" style="edgeStyle=none;html=1;exitX=0;exitY=0.5;exitDx=0;exitDy=0;entryX=1;entryY=0.5;entryDx=0;entryDy=0;endArrow=none;endFill=0;" edge="1" parent="1" source="rP3fQOl7Gl0Hr2_7MUwA-104" target="rP3fQOl7Gl0Hr2_7MUwA-77">
                    <mxGeometry relative="1" as="geometry"/>
                </mxCell>
                <mxCell id="rP3fQOl7Gl0Hr2_7MUwA-104" value="공급량" style="ellipse;whiteSpace=wrap;html=1;align=center;" vertex="1" parent="1">
                    <mxGeometry x="727" y="510" width="100" height="40" as="geometry"/>
                </mxCell>
                <mxCell id="rP3fQOl7Gl0Hr2_7MUwA-113" style="edgeStyle=none;html=1;exitX=0;exitY=0.5;exitDx=0;exitDy=0;endArrow=none;endFill=0;" edge="1" parent="1" source="rP3fQOl7Gl0Hr2_7MUwA-106">
                    <mxGeometry relative="1" as="geometry">
                        <mxPoint x="430" y="190" as="targetPoint"/>
                    </mxGeometry>
                </mxCell>
                <mxCell id="rP3fQOl7Gl0Hr2_7MUwA-106" value="주문일자" style="ellipse;whiteSpace=wrap;html=1;align=center;" vertex="1" parent="1">
                    <mxGeometry x="490" y="140" width="100" height="40" as="geometry"/>
                </mxCell>
                <mxCell id="rP3fQOl7Gl0Hr2_7MUwA-111" style="edgeStyle=none;html=1;exitX=0.5;exitY=1;exitDx=0;exitDy=0;endArrow=none;endFill=0;entryX=0.5;entryY=0;entryDx=0;entryDy=0;" edge="1" parent="1" source="rP3fQOl7Gl0Hr2_7MUwA-107" target="rP3fQOl7Gl0Hr2_7MUwA-71">
                    <mxGeometry relative="1" as="geometry">
                        <mxPoint x="430" y="130" as="targetPoint"/>
                    </mxGeometry>
                </mxCell>
                <mxCell id="rP3fQOl7Gl0Hr2_7MUwA-107" value="주문수량" style="ellipse;whiteSpace=wrap;html=1;align=center;" vertex="1" parent="1">
                    <mxGeometry x="330" y="5" width="100" height="55" as="geometry"/>
                </mxCell>
                <mxCell id="rP3fQOl7Gl0Hr2_7MUwA-112" style="edgeStyle=none;html=1;exitX=0.5;exitY=1;exitDx=0;exitDy=0;endArrow=none;endFill=0;" edge="1" parent="1" source="rP3fQOl7Gl0Hr2_7MUwA-108">
                    <mxGeometry relative="1" as="geometry">
                        <mxPoint x="430" y="190" as="targetPoint"/>
                    </mxGeometry>
                </mxCell>
                <mxCell id="gz1AZPOLZzwml3xiGjnG-3" style="edgeStyle=none;html=1;exitX=0.722;exitY=-0.001;exitDx=0;exitDy=0;entryX=0.5;entryY=1;entryDx=0;entryDy=0;endArrow=none;endFill=0;exitPerimeter=0;" edge="1" parent="1" source="rP3fQOl7Gl0Hr2_7MUwA-108" target="gz1AZPOLZzwml3xiGjnG-2">
                    <mxGeometry relative="1" as="geometry"/>
                </mxCell>
                <mxCell id="rP3fQOl7Gl0Hr2_7MUwA-108" value="배송지" style="ellipse;whiteSpace=wrap;html=1;align=center;" vertex="1" parent="1">
                    <mxGeometry x="430" y="80" width="100" height="40" as="geometry"/>
                </mxCell>
                <mxCell id="rP3fQOl7Gl0Hr2_7MUwA-110" style="edgeStyle=none;html=1;exitX=0.5;exitY=1;exitDx=0;exitDy=0;entryX=0.5;entryY=0;entryDx=0;entryDy=0;endArrow=none;endFill=0;" edge="1" parent="1" source="rP3fQOl7Gl0Hr2_7MUwA-109" target="rP3fQOl7Gl0Hr2_7MUwA-71">
                    <mxGeometry relative="1" as="geometry"/>
                </mxCell>
                <mxCell id="rP3fQOl7Gl0Hr2_7MUwA-109" value="주문번호" style="ellipse;whiteSpace=wrap;html=1;align=center;fontStyle=4;" vertex="1" parent="1">
                    <mxGeometry x="220" y="5" width="100" height="50" as="geometry"/>
                </mxCell>
                <mxCell id="gz1AZPOLZzwml3xiGjnG-1" value="상세주소" style="ellipse;whiteSpace=wrap;html=1;align=center;" vertex="1" parent="1">
                    <mxGeometry x="577" y="10" width="100" height="40" as="geometry"/>
                </mxCell>
                <mxCell id="LZL9T3_zWbjVLOdgsGzm-1" style="edgeStyle=none;html=1;exitX=1;exitY=0.5;exitDx=0;exitDy=0;entryX=0;entryY=0.5;entryDx=0;entryDy=0;endArrow=none;endFill=0;" edge="1" parent="1" source="gz1AZPOLZzwml3xiGjnG-2" target="gz1AZPOLZzwml3xiGjnG-1">
                    <mxGeometry relative="1" as="geometry"/>
                </mxCell>
                <mxCell id="gz1AZPOLZzwml3xiGjnG-2" value="기본주소" style="ellipse;whiteSpace=wrap;html=1;align=center;" vertex="1" parent="1">
                    <mxGeometry x="450" y="10" width="100" height="40" as="geometry"/>
                </mxCell>
                <mxCell id="1lNqmtzT2cYTPT0nZdpO-2" style="edgeStyle=none;html=1;exitX=0;exitY=0.5;exitDx=0;exitDy=0;entryX=1;entryY=0.5;entryDx=0;entryDy=0;endArrow=none;endFill=0;" edge="1" parent="1" source="1lNqmtzT2cYTPT0nZdpO-1" target="rP3fQOl7Gl0Hr2_7MUwA-17">
                    <mxGeometry relative="1" as="geometry"/>
                </mxCell>
                <mxCell id="1lNqmtzT2cYTPT0nZdpO-1" value="상품색상" style="ellipse;shape=doubleEllipse;margin=3;whiteSpace=wrap;html=1;align=center;" vertex="1" parent="1">
                    <mxGeometry x="727" y="235" width="100" height="50" as="geometry"/>
                </mxCell>
            </root>
        </mxGraphModel>
    </diagram>
    <diagram id="F5WBscPAFTIQGkp2FYBe" name="한빛 릴레이션">
        <mxGraphModel dx="1042" dy="521" grid="1" gridSize="10" guides="1" tooltips="1" connect="1" arrows="1" fold="1" page="1" pageScale="1" pageWidth="827" pageHeight="1169" math="0" shadow="0">
            <root>
                <mxCell id="0"/>
                <mxCell id="1" parent="0"/>
                <mxCell id="MbhYNMGiXeEgVM4gktjR-1" value="&lt;h1 style=&quot;margin-top: 0px;&quot;&gt;릴레이션 스키마(관계데이터모델)&lt;/h1&gt;&lt;div&gt;1) 모든 개체는 릴레이션으로 변환 해야 함&lt;/div&gt;&lt;p&gt;2) 다대다 관계는 릴레이션으로 변환 해야 함&amp;nbsp;&lt;/p&gt;&lt;p&gt;3) 일대다 관계는 외래키로 표현한다.&lt;/p&gt;&lt;p&gt;4) 일대일 관계는 외래키로 표현한다.&lt;/p&gt;&lt;p&gt;5) 다중값(멀티) 속성은 릴레이션으로 변환 해야 함&lt;/p&gt;" style="text;html=1;whiteSpace=wrap;overflow=hidden;rounded=0;" vertex="1" parent="1">
                    <mxGeometry width="390" height="190" as="geometry"/>
                </mxCell>
                <mxCell id="CzeChaSAAiLJnGkr1yP6-4" value="상품" style="shape=table;startSize=30;container=1;collapsible=1;childLayout=tableLayout;fixedRows=1;rowLines=0;fontStyle=1;align=center;resizeLast=1;html=1;" vertex="1" parent="1">
                    <mxGeometry x="651" y="200" width="109" height="240" as="geometry"/>
                </mxCell>
                <mxCell id="CzeChaSAAiLJnGkr1yP6-5" value="" style="shape=tableRow;horizontal=0;startSize=0;swimlaneHead=0;swimlaneBody=0;fillColor=none;collapsible=0;dropTarget=0;points=[[0,0.5],[1,0.5]];portConstraint=eastwest;top=0;left=0;right=0;bottom=1;" vertex="1" parent="CzeChaSAAiLJnGkr1yP6-4">
                    <mxGeometry y="30" width="109" height="30" as="geometry"/>
                </mxCell>
                <mxCell id="CzeChaSAAiLJnGkr1yP6-6" value="PK" style="shape=partialRectangle;connectable=0;fillColor=none;top=0;left=0;bottom=0;right=0;fontStyle=1;overflow=hidden;whiteSpace=wrap;html=1;" vertex="1" parent="CzeChaSAAiLJnGkr1yP6-5">
                    <mxGeometry width="30" height="30" as="geometry">
                        <mxRectangle width="30" height="30" as="alternateBounds"/>
                    </mxGeometry>
                </mxCell>
                <mxCell id="CzeChaSAAiLJnGkr1yP6-7" value="상품번호" style="shape=partialRectangle;connectable=0;fillColor=none;top=0;left=0;bottom=0;right=0;align=left;spacingLeft=6;fontStyle=5;overflow=hidden;whiteSpace=wrap;html=1;" vertex="1" parent="CzeChaSAAiLJnGkr1yP6-5">
                    <mxGeometry x="30" width="79" height="30" as="geometry">
                        <mxRectangle width="79" height="30" as="alternateBounds"/>
                    </mxGeometry>
                </mxCell>
                <mxCell id="2Ea59nozs6qhyxeUdP03-75" value="" style="shape=tableRow;horizontal=0;startSize=0;swimlaneHead=0;swimlaneBody=0;fillColor=none;collapsible=0;dropTarget=0;points=[[0,0.5],[1,0.5]];portConstraint=eastwest;top=0;left=0;right=0;bottom=1;" vertex="1" parent="CzeChaSAAiLJnGkr1yP6-4">
                    <mxGeometry y="60" width="109" height="30" as="geometry"/>
                </mxCell>
                <mxCell id="2Ea59nozs6qhyxeUdP03-76" value="FK" style="shape=partialRectangle;connectable=0;fillColor=none;top=0;left=0;bottom=0;right=0;fontStyle=1;overflow=hidden;whiteSpace=wrap;html=1;" vertex="1" parent="2Ea59nozs6qhyxeUdP03-75">
                    <mxGeometry width="30" height="30" as="geometry">
                        <mxRectangle width="30" height="30" as="alternateBounds"/>
                    </mxGeometry>
                </mxCell>
                <mxCell id="2Ea59nozs6qhyxeUdP03-77" value="업체코드" style="shape=partialRectangle;connectable=0;fillColor=none;top=0;left=0;bottom=0;right=0;align=left;spacingLeft=6;fontStyle=5;overflow=hidden;whiteSpace=wrap;html=1;" vertex="1" parent="2Ea59nozs6qhyxeUdP03-75">
                    <mxGeometry x="30" width="79" height="30" as="geometry">
                        <mxRectangle width="79" height="30" as="alternateBounds"/>
                    </mxGeometry>
                </mxCell>
                <mxCell id="CzeChaSAAiLJnGkr1yP6-8" value="" style="shape=tableRow;horizontal=0;startSize=0;swimlaneHead=0;swimlaneBody=0;fillColor=none;collapsible=0;dropTarget=0;points=[[0,0.5],[1,0.5]];portConstraint=eastwest;top=0;left=0;right=0;bottom=0;" vertex="1" parent="CzeChaSAAiLJnGkr1yP6-4">
                    <mxGeometry y="90" width="109" height="30" as="geometry"/>
                </mxCell>
                <mxCell id="CzeChaSAAiLJnGkr1yP6-9" value="" style="shape=partialRectangle;connectable=0;fillColor=none;top=0;left=0;bottom=0;right=0;editable=1;overflow=hidden;whiteSpace=wrap;html=1;" vertex="1" parent="CzeChaSAAiLJnGkr1yP6-8">
                    <mxGeometry width="30" height="30" as="geometry">
                        <mxRectangle width="30" height="30" as="alternateBounds"/>
                    </mxGeometry>
                </mxCell>
                <mxCell id="CzeChaSAAiLJnGkr1yP6-10" value="상품명" style="shape=partialRectangle;connectable=0;fillColor=none;top=0;left=0;bottom=0;right=0;align=left;spacingLeft=6;overflow=hidden;whiteSpace=wrap;html=1;" vertex="1" parent="CzeChaSAAiLJnGkr1yP6-8">
                    <mxGeometry x="30" width="79" height="30" as="geometry">
                        <mxRectangle width="79" height="30" as="alternateBounds"/>
                    </mxGeometry>
                </mxCell>
                <mxCell id="CzeChaSAAiLJnGkr1yP6-11" value="" style="shape=tableRow;horizontal=0;startSize=0;swimlaneHead=0;swimlaneBody=0;fillColor=none;collapsible=0;dropTarget=0;points=[[0,0.5],[1,0.5]];portConstraint=eastwest;top=0;left=0;right=0;bottom=0;" vertex="1" parent="CzeChaSAAiLJnGkr1yP6-4">
                    <mxGeometry y="120" width="109" height="30" as="geometry"/>
                </mxCell>
                <mxCell id="CzeChaSAAiLJnGkr1yP6-12" value="" style="shape=partialRectangle;connectable=0;fillColor=none;top=0;left=0;bottom=0;right=0;editable=1;overflow=hidden;whiteSpace=wrap;html=1;" vertex="1" parent="CzeChaSAAiLJnGkr1yP6-11">
                    <mxGeometry width="30" height="30" as="geometry">
                        <mxRectangle width="30" height="30" as="alternateBounds"/>
                    </mxGeometry>
                </mxCell>
                <mxCell id="CzeChaSAAiLJnGkr1yP6-13" value="재고량" style="shape=partialRectangle;connectable=0;fillColor=none;top=0;left=0;bottom=0;right=0;align=left;spacingLeft=6;overflow=hidden;whiteSpace=wrap;html=1;" vertex="1" parent="CzeChaSAAiLJnGkr1yP6-11">
                    <mxGeometry x="30" width="79" height="30" as="geometry">
                        <mxRectangle width="79" height="30" as="alternateBounds"/>
                    </mxGeometry>
                </mxCell>
                <mxCell id="CzeChaSAAiLJnGkr1yP6-14" value="" style="shape=tableRow;horizontal=0;startSize=0;swimlaneHead=0;swimlaneBody=0;fillColor=none;collapsible=0;dropTarget=0;points=[[0,0.5],[1,0.5]];portConstraint=eastwest;top=0;left=0;right=0;bottom=0;" vertex="1" parent="CzeChaSAAiLJnGkr1yP6-4">
                    <mxGeometry y="150" width="109" height="30" as="geometry"/>
                </mxCell>
                <mxCell id="CzeChaSAAiLJnGkr1yP6-15" value="" style="shape=partialRectangle;connectable=0;fillColor=none;top=0;left=0;bottom=0;right=0;editable=1;overflow=hidden;whiteSpace=wrap;html=1;" vertex="1" parent="CzeChaSAAiLJnGkr1yP6-14">
                    <mxGeometry width="30" height="30" as="geometry">
                        <mxRectangle width="30" height="30" as="alternateBounds"/>
                    </mxGeometry>
                </mxCell>
                <mxCell id="CzeChaSAAiLJnGkr1yP6-16" value="단가" style="shape=partialRectangle;connectable=0;fillColor=none;top=0;left=0;bottom=0;right=0;align=left;spacingLeft=6;overflow=hidden;whiteSpace=wrap;html=1;" vertex="1" parent="CzeChaSAAiLJnGkr1yP6-14">
                    <mxGeometry x="30" width="79" height="30" as="geometry">
                        <mxRectangle width="79" height="30" as="alternateBounds"/>
                    </mxGeometry>
                </mxCell>
                <mxCell id="CzeChaSAAiLJnGkr1yP6-17" value="" style="shape=tableRow;horizontal=0;startSize=0;swimlaneHead=0;swimlaneBody=0;fillColor=none;collapsible=0;dropTarget=0;points=[[0,0.5],[1,0.5]];portConstraint=eastwest;top=0;left=0;right=0;bottom=0;" vertex="1" parent="CzeChaSAAiLJnGkr1yP6-4">
                    <mxGeometry y="180" width="109" height="30" as="geometry"/>
                </mxCell>
                <mxCell id="CzeChaSAAiLJnGkr1yP6-18" value="" style="shape=partialRectangle;connectable=0;fillColor=none;top=0;left=0;bottom=0;right=0;editable=1;overflow=hidden;whiteSpace=wrap;html=1;" vertex="1" parent="CzeChaSAAiLJnGkr1yP6-17">
                    <mxGeometry width="30" height="30" as="geometry">
                        <mxRectangle width="30" height="30" as="alternateBounds"/>
                    </mxGeometry>
                </mxCell>
                <mxCell id="CzeChaSAAiLJnGkr1yP6-19" value="공급일자" style="shape=partialRectangle;connectable=0;fillColor=none;top=0;left=0;bottom=0;right=0;align=left;spacingLeft=6;overflow=hidden;whiteSpace=wrap;html=1;" vertex="1" parent="CzeChaSAAiLJnGkr1yP6-17">
                    <mxGeometry x="30" width="79" height="30" as="geometry">
                        <mxRectangle width="79" height="30" as="alternateBounds"/>
                    </mxGeometry>
                </mxCell>
                <mxCell id="2Ea59nozs6qhyxeUdP03-78" value="" style="shape=tableRow;horizontal=0;startSize=0;swimlaneHead=0;swimlaneBody=0;fillColor=none;collapsible=0;dropTarget=0;points=[[0,0.5],[1,0.5]];portConstraint=eastwest;top=0;left=0;right=0;bottom=0;" vertex="1" parent="CzeChaSAAiLJnGkr1yP6-4">
                    <mxGeometry y="210" width="109" height="30" as="geometry"/>
                </mxCell>
                <mxCell id="2Ea59nozs6qhyxeUdP03-79" value="" style="shape=partialRectangle;connectable=0;fillColor=none;top=0;left=0;bottom=0;right=0;editable=1;overflow=hidden;whiteSpace=wrap;html=1;" vertex="1" parent="2Ea59nozs6qhyxeUdP03-78">
                    <mxGeometry width="30" height="30" as="geometry">
                        <mxRectangle width="30" height="30" as="alternateBounds"/>
                    </mxGeometry>
                </mxCell>
                <mxCell id="2Ea59nozs6qhyxeUdP03-80" value="공급량" style="shape=partialRectangle;connectable=0;fillColor=none;top=0;left=0;bottom=0;right=0;align=left;spacingLeft=6;overflow=hidden;whiteSpace=wrap;html=1;" vertex="1" parent="2Ea59nozs6qhyxeUdP03-78">
                    <mxGeometry x="30" width="79" height="30" as="geometry">
                        <mxRectangle width="79" height="30" as="alternateBounds"/>
                    </mxGeometry>
                </mxCell>
                <mxCell id="MbhYNMGiXeEgVM4gktjR-15" value="회원" style="shape=table;startSize=30;container=1;collapsible=1;childLayout=tableLayout;fixedRows=1;rowLines=0;fontStyle=1;align=center;resizeLast=1;html=1;" vertex="1" parent="1">
                    <mxGeometry y="200" width="110" height="180" as="geometry"/>
                </mxCell>
                <mxCell id="MbhYNMGiXeEgVM4gktjR-16" value="" style="shape=tableRow;horizontal=0;startSize=0;swimlaneHead=0;swimlaneBody=0;fillColor=none;collapsible=0;dropTarget=0;points=[[0,0.5],[1,0.5]];portConstraint=eastwest;top=0;left=0;right=0;bottom=1;" vertex="1" parent="MbhYNMGiXeEgVM4gktjR-15">
                    <mxGeometry y="30" width="110" height="30" as="geometry"/>
                </mxCell>
                <mxCell id="MbhYNMGiXeEgVM4gktjR-17" value="PK" style="shape=partialRectangle;connectable=0;fillColor=none;top=0;left=0;bottom=0;right=0;fontStyle=1;overflow=hidden;whiteSpace=wrap;html=1;" vertex="1" parent="MbhYNMGiXeEgVM4gktjR-16">
                    <mxGeometry width="30" height="30" as="geometry">
                        <mxRectangle width="30" height="30" as="alternateBounds"/>
                    </mxGeometry>
                </mxCell>
                <mxCell id="MbhYNMGiXeEgVM4gktjR-18" value="아이디" style="shape=partialRectangle;connectable=0;fillColor=none;top=0;left=0;bottom=0;right=0;align=left;spacingLeft=6;fontStyle=5;overflow=hidden;whiteSpace=wrap;html=1;" vertex="1" parent="MbhYNMGiXeEgVM4gktjR-16">
                    <mxGeometry x="30" width="80" height="30" as="geometry">
                        <mxRectangle width="80" height="30" as="alternateBounds"/>
                    </mxGeometry>
                </mxCell>
                <mxCell id="MbhYNMGiXeEgVM4gktjR-19" value="" style="shape=tableRow;horizontal=0;startSize=0;swimlaneHead=0;swimlaneBody=0;fillColor=none;collapsible=0;dropTarget=0;points=[[0,0.5],[1,0.5]];portConstraint=eastwest;top=0;left=0;right=0;bottom=0;" vertex="1" parent="MbhYNMGiXeEgVM4gktjR-15">
                    <mxGeometry y="60" width="110" height="30" as="geometry"/>
                </mxCell>
                <mxCell id="MbhYNMGiXeEgVM4gktjR-20" value="" style="shape=partialRectangle;connectable=0;fillColor=none;top=0;left=0;bottom=0;right=0;editable=1;overflow=hidden;whiteSpace=wrap;html=1;" vertex="1" parent="MbhYNMGiXeEgVM4gktjR-19">
                    <mxGeometry width="30" height="30" as="geometry">
                        <mxRectangle width="30" height="30" as="alternateBounds"/>
                    </mxGeometry>
                </mxCell>
                <mxCell id="MbhYNMGiXeEgVM4gktjR-21" value="비밀번호" style="shape=partialRectangle;connectable=0;fillColor=none;top=0;left=0;bottom=0;right=0;align=left;spacingLeft=6;overflow=hidden;whiteSpace=wrap;html=1;" vertex="1" parent="MbhYNMGiXeEgVM4gktjR-19">
                    <mxGeometry x="30" width="80" height="30" as="geometry">
                        <mxRectangle width="80" height="30" as="alternateBounds"/>
                    </mxGeometry>
                </mxCell>
                <mxCell id="MbhYNMGiXeEgVM4gktjR-22" value="" style="shape=tableRow;horizontal=0;startSize=0;swimlaneHead=0;swimlaneBody=0;fillColor=none;collapsible=0;dropTarget=0;points=[[0,0.5],[1,0.5]];portConstraint=eastwest;top=0;left=0;right=0;bottom=0;" vertex="1" parent="MbhYNMGiXeEgVM4gktjR-15">
                    <mxGeometry y="90" width="110" height="30" as="geometry"/>
                </mxCell>
                <mxCell id="MbhYNMGiXeEgVM4gktjR-23" value="" style="shape=partialRectangle;connectable=0;fillColor=none;top=0;left=0;bottom=0;right=0;editable=1;overflow=hidden;whiteSpace=wrap;html=1;" vertex="1" parent="MbhYNMGiXeEgVM4gktjR-22">
                    <mxGeometry width="30" height="30" as="geometry">
                        <mxRectangle width="30" height="30" as="alternateBounds"/>
                    </mxGeometry>
                </mxCell>
                <mxCell id="MbhYNMGiXeEgVM4gktjR-24" value="나이" style="shape=partialRectangle;connectable=0;fillColor=none;top=0;left=0;bottom=0;right=0;align=left;spacingLeft=6;overflow=hidden;whiteSpace=wrap;html=1;" vertex="1" parent="MbhYNMGiXeEgVM4gktjR-22">
                    <mxGeometry x="30" width="80" height="30" as="geometry">
                        <mxRectangle width="80" height="30" as="alternateBounds"/>
                    </mxGeometry>
                </mxCell>
                <mxCell id="MbhYNMGiXeEgVM4gktjR-25" value="" style="shape=tableRow;horizontal=0;startSize=0;swimlaneHead=0;swimlaneBody=0;fillColor=none;collapsible=0;dropTarget=0;points=[[0,0.5],[1,0.5]];portConstraint=eastwest;top=0;left=0;right=0;bottom=0;" vertex="1" parent="MbhYNMGiXeEgVM4gktjR-15">
                    <mxGeometry y="120" width="110" height="30" as="geometry"/>
                </mxCell>
                <mxCell id="MbhYNMGiXeEgVM4gktjR-26" value="" style="shape=partialRectangle;connectable=0;fillColor=none;top=0;left=0;bottom=0;right=0;editable=1;overflow=hidden;whiteSpace=wrap;html=1;" vertex="1" parent="MbhYNMGiXeEgVM4gktjR-25">
                    <mxGeometry width="30" height="30" as="geometry">
                        <mxRectangle width="30" height="30" as="alternateBounds"/>
                    </mxGeometry>
                </mxCell>
                <mxCell id="MbhYNMGiXeEgVM4gktjR-27" value="이름" style="shape=partialRectangle;connectable=0;fillColor=none;top=0;left=0;bottom=0;right=0;align=left;spacingLeft=6;overflow=hidden;whiteSpace=wrap;html=1;" vertex="1" parent="MbhYNMGiXeEgVM4gktjR-25">
                    <mxGeometry x="30" width="80" height="30" as="geometry">
                        <mxRectangle width="80" height="30" as="alternateBounds"/>
                    </mxGeometry>
                </mxCell>
                <mxCell id="CzeChaSAAiLJnGkr1yP6-1" value="" style="shape=tableRow;horizontal=0;startSize=0;swimlaneHead=0;swimlaneBody=0;fillColor=none;collapsible=0;dropTarget=0;points=[[0,0.5],[1,0.5]];portConstraint=eastwest;top=0;left=0;right=0;bottom=0;" vertex="1" parent="MbhYNMGiXeEgVM4gktjR-15">
                    <mxGeometry y="150" width="110" height="30" as="geometry"/>
                </mxCell>
                <mxCell id="CzeChaSAAiLJnGkr1yP6-2" value="" style="shape=partialRectangle;connectable=0;fillColor=none;top=0;left=0;bottom=0;right=0;editable=1;overflow=hidden;whiteSpace=wrap;html=1;" vertex="1" parent="CzeChaSAAiLJnGkr1yP6-1">
                    <mxGeometry width="30" height="30" as="geometry">
                        <mxRectangle width="30" height="30" as="alternateBounds"/>
                    </mxGeometry>
                </mxCell>
                <mxCell id="CzeChaSAAiLJnGkr1yP6-3" value="직업" style="shape=partialRectangle;connectable=0;fillColor=none;top=0;left=0;bottom=0;right=0;align=left;spacingLeft=6;overflow=hidden;whiteSpace=wrap;html=1;" vertex="1" parent="CzeChaSAAiLJnGkr1yP6-1">
                    <mxGeometry x="30" width="80" height="30" as="geometry">
                        <mxRectangle width="80" height="30" as="alternateBounds"/>
                    </mxGeometry>
                </mxCell>
                <mxCell id="CzeChaSAAiLJnGkr1yP6-42" value="게시글" style="shape=table;startSize=35;container=1;collapsible=1;childLayout=tableLayout;fixedRows=1;rowLines=0;fontStyle=1;align=center;resizeLast=1;html=1;" vertex="1" parent="1">
                    <mxGeometry x="500" y="200" width="100" height="185" as="geometry"/>
                </mxCell>
                <mxCell id="CzeChaSAAiLJnGkr1yP6-43" value="" style="shape=tableRow;horizontal=0;startSize=0;swimlaneHead=0;swimlaneBody=0;fillColor=none;collapsible=0;dropTarget=0;points=[[0,0.5],[1,0.5]];portConstraint=eastwest;top=0;left=0;right=0;bottom=1;" vertex="1" parent="CzeChaSAAiLJnGkr1yP6-42">
                    <mxGeometry y="35" width="100" height="30" as="geometry"/>
                </mxCell>
                <mxCell id="CzeChaSAAiLJnGkr1yP6-44" value="PK" style="shape=partialRectangle;connectable=0;fillColor=none;top=0;left=0;bottom=0;right=0;fontStyle=1;overflow=hidden;whiteSpace=wrap;html=1;" vertex="1" parent="CzeChaSAAiLJnGkr1yP6-43">
                    <mxGeometry width="30" height="30" as="geometry">
                        <mxRectangle width="30" height="30" as="alternateBounds"/>
                    </mxGeometry>
                </mxCell>
                <mxCell id="CzeChaSAAiLJnGkr1yP6-45" value="글번호" style="shape=partialRectangle;connectable=0;fillColor=none;top=0;left=0;bottom=0;right=0;align=left;spacingLeft=6;fontStyle=5;overflow=hidden;whiteSpace=wrap;html=1;" vertex="1" parent="CzeChaSAAiLJnGkr1yP6-43">
                    <mxGeometry x="30" width="70" height="30" as="geometry">
                        <mxRectangle width="70" height="30" as="alternateBounds"/>
                    </mxGeometry>
                </mxCell>
                <mxCell id="2Ea59nozs6qhyxeUdP03-2" value="" style="shape=tableRow;horizontal=0;startSize=0;swimlaneHead=0;swimlaneBody=0;fillColor=none;collapsible=0;dropTarget=0;points=[[0,0.5],[1,0.5]];portConstraint=eastwest;top=0;left=0;right=0;bottom=1;" vertex="1" parent="CzeChaSAAiLJnGkr1yP6-42">
                    <mxGeometry y="65" width="100" height="30" as="geometry"/>
                </mxCell>
                <mxCell id="2Ea59nozs6qhyxeUdP03-3" value="FK" style="shape=partialRectangle;connectable=0;fillColor=none;top=0;left=0;bottom=0;right=0;fontStyle=1;overflow=hidden;whiteSpace=wrap;html=1;" vertex="1" parent="2Ea59nozs6qhyxeUdP03-2">
                    <mxGeometry width="30" height="30" as="geometry">
                        <mxRectangle width="30" height="30" as="alternateBounds"/>
                    </mxGeometry>
                </mxCell>
                <mxCell id="2Ea59nozs6qhyxeUdP03-4" value="작성" style="shape=partialRectangle;connectable=0;fillColor=none;top=0;left=0;bottom=0;right=0;align=left;spacingLeft=6;fontStyle=5;overflow=hidden;whiteSpace=wrap;html=1;" vertex="1" parent="2Ea59nozs6qhyxeUdP03-2">
                    <mxGeometry x="30" width="70" height="30" as="geometry">
                        <mxRectangle width="70" height="30" as="alternateBounds"/>
                    </mxGeometry>
                </mxCell>
                <mxCell id="2Ea59nozs6qhyxeUdP03-5" value="" style="shape=tableRow;horizontal=0;startSize=0;swimlaneHead=0;swimlaneBody=0;fillColor=none;collapsible=0;dropTarget=0;points=[[0,0.5],[1,0.5]];portConstraint=eastwest;top=0;left=0;right=0;bottom=0;" vertex="1" parent="CzeChaSAAiLJnGkr1yP6-42">
                    <mxGeometry y="95" width="100" height="30" as="geometry"/>
                </mxCell>
                <mxCell id="2Ea59nozs6qhyxeUdP03-6" value="" style="shape=partialRectangle;connectable=0;fillColor=none;top=0;left=0;bottom=0;right=0;editable=1;overflow=hidden;whiteSpace=wrap;html=1;" vertex="1" parent="2Ea59nozs6qhyxeUdP03-5">
                    <mxGeometry width="30" height="30" as="geometry">
                        <mxRectangle width="30" height="30" as="alternateBounds"/>
                    </mxGeometry>
                </mxCell>
                <mxCell id="2Ea59nozs6qhyxeUdP03-7" value="제목" style="shape=partialRectangle;connectable=0;fillColor=none;top=0;left=0;bottom=0;right=0;align=left;spacingLeft=6;overflow=hidden;whiteSpace=wrap;html=1;" vertex="1" parent="2Ea59nozs6qhyxeUdP03-5">
                    <mxGeometry x="30" width="70" height="30" as="geometry">
                        <mxRectangle width="70" height="30" as="alternateBounds"/>
                    </mxGeometry>
                </mxCell>
                <mxCell id="2Ea59nozs6qhyxeUdP03-8" value="" style="shape=tableRow;horizontal=0;startSize=0;swimlaneHead=0;swimlaneBody=0;fillColor=none;collapsible=0;dropTarget=0;points=[[0,0.5],[1,0.5]];portConstraint=eastwest;top=0;left=0;right=0;bottom=0;" vertex="1" parent="CzeChaSAAiLJnGkr1yP6-42">
                    <mxGeometry y="125" width="100" height="30" as="geometry"/>
                </mxCell>
                <mxCell id="2Ea59nozs6qhyxeUdP03-9" value="" style="shape=partialRectangle;connectable=0;fillColor=none;top=0;left=0;bottom=0;right=0;editable=1;overflow=hidden;whiteSpace=wrap;html=1;" vertex="1" parent="2Ea59nozs6qhyxeUdP03-8">
                    <mxGeometry width="30" height="30" as="geometry">
                        <mxRectangle width="30" height="30" as="alternateBounds"/>
                    </mxGeometry>
                </mxCell>
                <mxCell id="2Ea59nozs6qhyxeUdP03-10" value="내용" style="shape=partialRectangle;connectable=0;fillColor=none;top=0;left=0;bottom=0;right=0;align=left;spacingLeft=6;overflow=hidden;whiteSpace=wrap;html=1;" vertex="1" parent="2Ea59nozs6qhyxeUdP03-8">
                    <mxGeometry x="30" width="70" height="30" as="geometry">
                        <mxRectangle width="70" height="30" as="alternateBounds"/>
                    </mxGeometry>
                </mxCell>
                <mxCell id="2Ea59nozs6qhyxeUdP03-11" value="" style="shape=tableRow;horizontal=0;startSize=0;swimlaneHead=0;swimlaneBody=0;fillColor=none;collapsible=0;dropTarget=0;points=[[0,0.5],[1,0.5]];portConstraint=eastwest;top=0;left=0;right=0;bottom=0;" vertex="1" parent="CzeChaSAAiLJnGkr1yP6-42">
                    <mxGeometry y="155" width="100" height="30" as="geometry"/>
                </mxCell>
                <mxCell id="2Ea59nozs6qhyxeUdP03-12" value="" style="shape=partialRectangle;connectable=0;fillColor=none;top=0;left=0;bottom=0;right=0;editable=1;overflow=hidden;whiteSpace=wrap;html=1;" vertex="1" parent="2Ea59nozs6qhyxeUdP03-11">
                    <mxGeometry width="30" height="30" as="geometry">
                        <mxRectangle width="30" height="30" as="alternateBounds"/>
                    </mxGeometry>
                </mxCell>
                <mxCell id="2Ea59nozs6qhyxeUdP03-13" value="작성일" style="shape=partialRectangle;connectable=0;fillColor=none;top=0;left=0;bottom=0;right=0;align=left;spacingLeft=6;overflow=hidden;whiteSpace=wrap;html=1;" vertex="1" parent="2Ea59nozs6qhyxeUdP03-11">
                    <mxGeometry x="30" width="70" height="30" as="geometry">
                        <mxRectangle width="70" height="30" as="alternateBounds"/>
                    </mxGeometry>
                </mxCell>
                <mxCell id="sKp2nLNSEhZG90fDY_0p-1" value="주문" style="shape=table;startSize=30;container=1;collapsible=1;childLayout=tableLayout;fixedRows=1;rowLines=0;fontStyle=1;align=center;resizeLast=1;html=1;whiteSpace=wrap;" vertex="1" parent="1">
                    <mxGeometry x="150" y="200.5" width="146" height="240" as="geometry"/>
                </mxCell>
                <mxCell id="sKp2nLNSEhZG90fDY_0p-2" value="" style="shape=tableRow;horizontal=0;startSize=0;swimlaneHead=0;swimlaneBody=0;fillColor=none;collapsible=0;dropTarget=0;points=[[0,0.5],[1,0.5]];portConstraint=eastwest;top=0;left=0;right=0;bottom=0;html=1;" vertex="1" parent="sKp2nLNSEhZG90fDY_0p-1">
                    <mxGeometry y="30" width="146" height="30" as="geometry"/>
                </mxCell>
                <mxCell id="sKp2nLNSEhZG90fDY_0p-3" value="PK" style="shape=partialRectangle;connectable=0;fillColor=none;top=0;left=0;bottom=0;right=0;fontStyle=1;overflow=hidden;html=1;whiteSpace=wrap;" vertex="1" parent="sKp2nLNSEhZG90fDY_0p-2">
                    <mxGeometry width="60" height="30" as="geometry">
                        <mxRectangle width="60" height="30" as="alternateBounds"/>
                    </mxGeometry>
                </mxCell>
                <mxCell id="sKp2nLNSEhZG90fDY_0p-4" value="주문번호" style="shape=partialRectangle;connectable=0;fillColor=none;top=0;left=0;bottom=0;right=0;align=left;spacingLeft=6;fontStyle=5;overflow=hidden;html=1;whiteSpace=wrap;" vertex="1" parent="sKp2nLNSEhZG90fDY_0p-2">
                    <mxGeometry x="60" width="86" height="30" as="geometry">
                        <mxRectangle width="86" height="30" as="alternateBounds"/>
                    </mxGeometry>
                </mxCell>
                <mxCell id="sKp2nLNSEhZG90fDY_0p-5" value="" style="shape=tableRow;horizontal=0;startSize=0;swimlaneHead=0;swimlaneBody=0;fillColor=none;collapsible=0;dropTarget=0;points=[[0,0.5],[1,0.5]];portConstraint=eastwest;top=0;left=0;right=0;bottom=1;html=1;" vertex="1" parent="sKp2nLNSEhZG90fDY_0p-1">
                    <mxGeometry y="60" width="146" height="30" as="geometry"/>
                </mxCell>
                <mxCell id="sKp2nLNSEhZG90fDY_0p-6" value="FK" style="shape=partialRectangle;connectable=0;fillColor=none;top=0;left=0;bottom=0;right=0;fontStyle=1;overflow=hidden;html=1;whiteSpace=wrap;" vertex="1" parent="sKp2nLNSEhZG90fDY_0p-5">
                    <mxGeometry width="60" height="30" as="geometry">
                        <mxRectangle width="60" height="30" as="alternateBounds"/>
                    </mxGeometry>
                </mxCell>
                <mxCell id="sKp2nLNSEhZG90fDY_0p-7" value="회원아이디" style="shape=partialRectangle;connectable=0;fillColor=none;top=0;left=0;bottom=0;right=0;align=left;spacingLeft=6;fontStyle=5;overflow=hidden;html=1;whiteSpace=wrap;" vertex="1" parent="sKp2nLNSEhZG90fDY_0p-5">
                    <mxGeometry x="60" width="86" height="30" as="geometry">
                        <mxRectangle width="86" height="30" as="alternateBounds"/>
                    </mxGeometry>
                </mxCell>
                <mxCell id="2Ea59nozs6qhyxeUdP03-81" value="" style="shape=tableRow;horizontal=0;startSize=0;swimlaneHead=0;swimlaneBody=0;fillColor=none;collapsible=0;dropTarget=0;points=[[0,0.5],[1,0.5]];portConstraint=eastwest;top=0;left=0;right=0;bottom=1;html=1;" vertex="1" parent="sKp2nLNSEhZG90fDY_0p-1">
                    <mxGeometry y="90" width="146" height="30" as="geometry"/>
                </mxCell>
                <mxCell id="2Ea59nozs6qhyxeUdP03-82" value="FK" style="shape=partialRectangle;connectable=0;fillColor=none;top=0;left=0;bottom=0;right=0;fontStyle=1;overflow=hidden;html=1;whiteSpace=wrap;" vertex="1" parent="2Ea59nozs6qhyxeUdP03-81">
                    <mxGeometry width="60" height="30" as="geometry">
                        <mxRectangle width="60" height="30" as="alternateBounds"/>
                    </mxGeometry>
                </mxCell>
                <mxCell id="2Ea59nozs6qhyxeUdP03-83" value="상품번호" style="shape=partialRectangle;connectable=0;fillColor=none;top=0;left=0;bottom=0;right=0;align=left;spacingLeft=6;fontStyle=5;overflow=hidden;html=1;whiteSpace=wrap;" vertex="1" parent="2Ea59nozs6qhyxeUdP03-81">
                    <mxGeometry x="60" width="86" height="30" as="geometry">
                        <mxRectangle width="86" height="30" as="alternateBounds"/>
                    </mxGeometry>
                </mxCell>
                <mxCell id="sKp2nLNSEhZG90fDY_0p-8" value="" style="shape=tableRow;horizontal=0;startSize=0;swimlaneHead=0;swimlaneBody=0;fillColor=none;collapsible=0;dropTarget=0;points=[[0,0.5],[1,0.5]];portConstraint=eastwest;top=0;left=0;right=0;bottom=0;html=1;" vertex="1" parent="sKp2nLNSEhZG90fDY_0p-1">
                    <mxGeometry y="120" width="146" height="30" as="geometry"/>
                </mxCell>
                <mxCell id="sKp2nLNSEhZG90fDY_0p-9" value="" style="shape=partialRectangle;connectable=0;fillColor=none;top=0;left=0;bottom=0;right=0;editable=1;overflow=hidden;html=1;whiteSpace=wrap;" vertex="1" parent="sKp2nLNSEhZG90fDY_0p-8">
                    <mxGeometry width="60" height="30" as="geometry">
                        <mxRectangle width="60" height="30" as="alternateBounds"/>
                    </mxGeometry>
                </mxCell>
                <mxCell id="sKp2nLNSEhZG90fDY_0p-10" value="주문수량" style="shape=partialRectangle;connectable=0;fillColor=none;top=0;left=0;bottom=0;right=0;align=left;spacingLeft=6;overflow=hidden;html=1;whiteSpace=wrap;" vertex="1" parent="sKp2nLNSEhZG90fDY_0p-8">
                    <mxGeometry x="60" width="86" height="30" as="geometry">
                        <mxRectangle width="86" height="30" as="alternateBounds"/>
                    </mxGeometry>
                </mxCell>
                <mxCell id="sKp2nLNSEhZG90fDY_0p-11" value="" style="shape=tableRow;horizontal=0;startSize=0;swimlaneHead=0;swimlaneBody=0;fillColor=none;collapsible=0;dropTarget=0;points=[[0,0.5],[1,0.5]];portConstraint=eastwest;top=0;left=0;right=0;bottom=0;html=1;" vertex="1" parent="sKp2nLNSEhZG90fDY_0p-1">
                    <mxGeometry y="150" width="146" height="30" as="geometry"/>
                </mxCell>
                <mxCell id="sKp2nLNSEhZG90fDY_0p-12" value="" style="shape=partialRectangle;connectable=0;fillColor=none;top=0;left=0;bottom=0;right=0;editable=1;overflow=hidden;html=1;whiteSpace=wrap;" vertex="1" parent="sKp2nLNSEhZG90fDY_0p-11">
                    <mxGeometry width="60" height="30" as="geometry">
                        <mxRectangle width="60" height="30" as="alternateBounds"/>
                    </mxGeometry>
                </mxCell>
                <mxCell id="sKp2nLNSEhZG90fDY_0p-13" value="기본주소" style="shape=partialRectangle;connectable=0;fillColor=none;top=0;left=0;bottom=0;right=0;align=left;spacingLeft=6;overflow=hidden;html=1;whiteSpace=wrap;" vertex="1" parent="sKp2nLNSEhZG90fDY_0p-11">
                    <mxGeometry x="60" width="86" height="30" as="geometry">
                        <mxRectangle width="86" height="30" as="alternateBounds"/>
                    </mxGeometry>
                </mxCell>
                <mxCell id="sKp2nLNSEhZG90fDY_0p-14" value="" style="shape=tableRow;horizontal=0;startSize=0;swimlaneHead=0;swimlaneBody=0;fillColor=none;collapsible=0;dropTarget=0;points=[[0,0.5],[1,0.5]];portConstraint=eastwest;top=0;left=0;right=0;bottom=0;html=1;" vertex="1" parent="sKp2nLNSEhZG90fDY_0p-1">
                    <mxGeometry y="180" width="146" height="30" as="geometry"/>
                </mxCell>
                <mxCell id="sKp2nLNSEhZG90fDY_0p-15" value="" style="shape=partialRectangle;connectable=0;fillColor=none;top=0;left=0;bottom=0;right=0;editable=1;overflow=hidden;html=1;whiteSpace=wrap;" vertex="1" parent="sKp2nLNSEhZG90fDY_0p-14">
                    <mxGeometry width="60" height="30" as="geometry">
                        <mxRectangle width="60" height="30" as="alternateBounds"/>
                    </mxGeometry>
                </mxCell>
                <mxCell id="sKp2nLNSEhZG90fDY_0p-16" value="상세주소" style="shape=partialRectangle;connectable=0;fillColor=none;top=0;left=0;bottom=0;right=0;align=left;spacingLeft=6;overflow=hidden;html=1;whiteSpace=wrap;" vertex="1" parent="sKp2nLNSEhZG90fDY_0p-14">
                    <mxGeometry x="60" width="86" height="30" as="geometry">
                        <mxRectangle width="86" height="30" as="alternateBounds"/>
                    </mxGeometry>
                </mxCell>
                <mxCell id="I4NHnmODbj8ID54fFK-r-1" value="" style="shape=tableRow;horizontal=0;startSize=0;swimlaneHead=0;swimlaneBody=0;fillColor=none;collapsible=0;dropTarget=0;points=[[0,0.5],[1,0.5]];portConstraint=eastwest;top=0;left=0;right=0;bottom=0;html=1;" vertex="1" parent="sKp2nLNSEhZG90fDY_0p-1">
                    <mxGeometry y="210" width="146" height="30" as="geometry"/>
                </mxCell>
                <mxCell id="I4NHnmODbj8ID54fFK-r-2" value="" style="shape=partialRectangle;connectable=0;fillColor=none;top=0;left=0;bottom=0;right=0;editable=1;overflow=hidden;html=1;whiteSpace=wrap;" vertex="1" parent="I4NHnmODbj8ID54fFK-r-1">
                    <mxGeometry width="60" height="30" as="geometry">
                        <mxRectangle width="60" height="30" as="alternateBounds"/>
                    </mxGeometry>
                </mxCell>
                <mxCell id="I4NHnmODbj8ID54fFK-r-3" value="주문일자" style="shape=partialRectangle;connectable=0;fillColor=none;top=0;left=0;bottom=0;right=0;align=left;spacingLeft=6;overflow=hidden;html=1;whiteSpace=wrap;" vertex="1" parent="I4NHnmODbj8ID54fFK-r-1">
                    <mxGeometry x="60" width="86" height="30" as="geometry">
                        <mxRectangle width="86" height="30" as="alternateBounds"/>
                    </mxGeometry>
                </mxCell>
                <mxCell id="CzeChaSAAiLJnGkr1yP6-23" value="제조업체" style="shape=table;startSize=30;container=1;collapsible=1;childLayout=tableLayout;fixedRows=1;rowLines=0;fontStyle=1;align=center;resizeLast=1;html=1;" vertex="1" parent="1">
                    <mxGeometry x="340" y="200" width="109" height="213" as="geometry"/>
                </mxCell>
                <mxCell id="CzeChaSAAiLJnGkr1yP6-24" value="" style="shape=tableRow;horizontal=0;startSize=0;swimlaneHead=0;swimlaneBody=0;fillColor=none;collapsible=0;dropTarget=0;points=[[0,0.5],[1,0.5]];portConstraint=eastwest;top=0;left=0;right=0;bottom=1;" vertex="1" parent="CzeChaSAAiLJnGkr1yP6-23">
                    <mxGeometry y="30" width="109" height="30" as="geometry"/>
                </mxCell>
                <mxCell id="CzeChaSAAiLJnGkr1yP6-25" value="PK" style="shape=partialRectangle;connectable=0;fillColor=none;top=0;left=0;bottom=0;right=0;fontStyle=1;overflow=hidden;whiteSpace=wrap;html=1;" vertex="1" parent="CzeChaSAAiLJnGkr1yP6-24">
                    <mxGeometry width="30" height="30" as="geometry">
                        <mxRectangle width="30" height="30" as="alternateBounds"/>
                    </mxGeometry>
                </mxCell>
                <mxCell id="CzeChaSAAiLJnGkr1yP6-26" value="업체코드" style="shape=partialRectangle;connectable=0;fillColor=none;top=0;left=0;bottom=0;right=0;align=left;spacingLeft=6;fontStyle=5;overflow=hidden;whiteSpace=wrap;html=1;" vertex="1" parent="CzeChaSAAiLJnGkr1yP6-24">
                    <mxGeometry x="30" width="79" height="30" as="geometry">
                        <mxRectangle width="79" height="30" as="alternateBounds"/>
                    </mxGeometry>
                </mxCell>
                <mxCell id="2Ea59nozs6qhyxeUdP03-72" value="" style="shape=tableRow;horizontal=0;startSize=0;swimlaneHead=0;swimlaneBody=0;fillColor=none;collapsible=0;dropTarget=0;points=[[0,0.5],[1,0.5]];portConstraint=eastwest;top=0;left=0;right=0;bottom=1;" vertex="1" parent="CzeChaSAAiLJnGkr1yP6-23">
                    <mxGeometry y="60" width="109" height="30" as="geometry"/>
                </mxCell>
                <mxCell id="2Ea59nozs6qhyxeUdP03-73" value="FK" style="shape=partialRectangle;connectable=0;fillColor=none;top=0;left=0;bottom=0;right=0;fontStyle=1;overflow=hidden;whiteSpace=wrap;html=1;" vertex="1" parent="2Ea59nozs6qhyxeUdP03-72">
                    <mxGeometry width="30" height="30" as="geometry">
                        <mxRectangle width="30" height="30" as="alternateBounds"/>
                    </mxGeometry>
                </mxCell>
                <mxCell id="2Ea59nozs6qhyxeUdP03-74" value="업체코드" style="shape=partialRectangle;connectable=0;fillColor=none;top=0;left=0;bottom=0;right=0;align=left;spacingLeft=6;fontStyle=5;overflow=hidden;whiteSpace=wrap;html=1;" vertex="1" parent="2Ea59nozs6qhyxeUdP03-72">
                    <mxGeometry x="30" width="79" height="30" as="geometry">
                        <mxRectangle width="79" height="30" as="alternateBounds"/>
                    </mxGeometry>
                </mxCell>
                <mxCell id="CzeChaSAAiLJnGkr1yP6-27" value="" style="shape=tableRow;horizontal=0;startSize=0;swimlaneHead=0;swimlaneBody=0;fillColor=none;collapsible=0;dropTarget=0;points=[[0,0.5],[1,0.5]];portConstraint=eastwest;top=0;left=0;right=0;bottom=0;" vertex="1" parent="CzeChaSAAiLJnGkr1yP6-23">
                    <mxGeometry y="90" width="109" height="30" as="geometry"/>
                </mxCell>
                <mxCell id="CzeChaSAAiLJnGkr1yP6-28" value="" style="shape=partialRectangle;connectable=0;fillColor=none;top=0;left=0;bottom=0;right=0;editable=1;overflow=hidden;whiteSpace=wrap;html=1;" vertex="1" parent="CzeChaSAAiLJnGkr1yP6-27">
                    <mxGeometry width="30" height="30" as="geometry">
                        <mxRectangle width="30" height="30" as="alternateBounds"/>
                    </mxGeometry>
                </mxCell>
                <mxCell id="CzeChaSAAiLJnGkr1yP6-29" value="업체명" style="shape=partialRectangle;connectable=0;fillColor=none;top=0;left=0;bottom=0;right=0;align=left;spacingLeft=6;overflow=hidden;whiteSpace=wrap;html=1;" vertex="1" parent="CzeChaSAAiLJnGkr1yP6-27">
                    <mxGeometry x="30" width="79" height="30" as="geometry">
                        <mxRectangle width="79" height="30" as="alternateBounds"/>
                    </mxGeometry>
                </mxCell>
                <mxCell id="CzeChaSAAiLJnGkr1yP6-30" value="" style="shape=tableRow;horizontal=0;startSize=0;swimlaneHead=0;swimlaneBody=0;fillColor=none;collapsible=0;dropTarget=0;points=[[0,0.5],[1,0.5]];portConstraint=eastwest;top=0;left=0;right=0;bottom=0;" vertex="1" parent="CzeChaSAAiLJnGkr1yP6-23">
                    <mxGeometry y="120" width="109" height="30" as="geometry"/>
                </mxCell>
                <mxCell id="CzeChaSAAiLJnGkr1yP6-31" value="" style="shape=partialRectangle;connectable=0;fillColor=none;top=0;left=0;bottom=0;right=0;editable=1;overflow=hidden;whiteSpace=wrap;html=1;" vertex="1" parent="CzeChaSAAiLJnGkr1yP6-30">
                    <mxGeometry width="30" height="30" as="geometry">
                        <mxRectangle width="30" height="30" as="alternateBounds"/>
                    </mxGeometry>
                </mxCell>
                <mxCell id="CzeChaSAAiLJnGkr1yP6-32" value="전화번호" style="shape=partialRectangle;connectable=0;fillColor=none;top=0;left=0;bottom=0;right=0;align=left;spacingLeft=6;overflow=hidden;whiteSpace=wrap;html=1;" vertex="1" parent="CzeChaSAAiLJnGkr1yP6-30">
                    <mxGeometry x="30" width="79" height="30" as="geometry">
                        <mxRectangle width="79" height="30" as="alternateBounds"/>
                    </mxGeometry>
                </mxCell>
                <mxCell id="CzeChaSAAiLJnGkr1yP6-33" value="" style="shape=tableRow;horizontal=0;startSize=0;swimlaneHead=0;swimlaneBody=0;fillColor=none;collapsible=0;dropTarget=0;points=[[0,0.5],[1,0.5]];portConstraint=eastwest;top=0;left=0;right=0;bottom=0;" vertex="1" parent="CzeChaSAAiLJnGkr1yP6-23">
                    <mxGeometry y="150" width="109" height="30" as="geometry"/>
                </mxCell>
                <mxCell id="CzeChaSAAiLJnGkr1yP6-34" value="" style="shape=partialRectangle;connectable=0;fillColor=none;top=0;left=0;bottom=0;right=0;editable=1;overflow=hidden;whiteSpace=wrap;html=1;" vertex="1" parent="CzeChaSAAiLJnGkr1yP6-33">
                    <mxGeometry width="30" height="30" as="geometry">
                        <mxRectangle width="30" height="30" as="alternateBounds"/>
                    </mxGeometry>
                </mxCell>
                <mxCell id="CzeChaSAAiLJnGkr1yP6-35" value="위치" style="shape=partialRectangle;connectable=0;fillColor=none;top=0;left=0;bottom=0;right=0;align=left;spacingLeft=6;overflow=hidden;whiteSpace=wrap;html=1;" vertex="1" parent="CzeChaSAAiLJnGkr1yP6-33">
                    <mxGeometry x="30" width="79" height="30" as="geometry">
                        <mxRectangle width="79" height="30" as="alternateBounds"/>
                    </mxGeometry>
                </mxCell>
                <mxCell id="CzeChaSAAiLJnGkr1yP6-36" value="" style="shape=tableRow;horizontal=0;startSize=0;swimlaneHead=0;swimlaneBody=0;fillColor=none;collapsible=0;dropTarget=0;points=[[0,0.5],[1,0.5]];portConstraint=eastwest;top=0;left=0;right=0;bottom=0;" vertex="1" parent="CzeChaSAAiLJnGkr1yP6-23">
                    <mxGeometry y="180" width="109" height="30" as="geometry"/>
                </mxCell>
                <mxCell id="CzeChaSAAiLJnGkr1yP6-37" value="" style="shape=partialRectangle;connectable=0;fillColor=none;top=0;left=0;bottom=0;right=0;editable=1;overflow=hidden;whiteSpace=wrap;html=1;" vertex="1" parent="CzeChaSAAiLJnGkr1yP6-36">
                    <mxGeometry width="30" height="30" as="geometry">
                        <mxRectangle width="30" height="30" as="alternateBounds"/>
                    </mxGeometry>
                </mxCell>
                <mxCell id="CzeChaSAAiLJnGkr1yP6-38" value="담당자" style="shape=partialRectangle;connectable=0;fillColor=none;top=0;left=0;bottom=0;right=0;align=left;spacingLeft=6;overflow=hidden;whiteSpace=wrap;html=1;" vertex="1" parent="CzeChaSAAiLJnGkr1yP6-36">
                    <mxGeometry x="30" width="79" height="30" as="geometry">
                        <mxRectangle width="79" height="30" as="alternateBounds"/>
                    </mxGeometry>
                </mxCell>
                <mxCell id="CrgSgGHlS2bQ2M_Z-CYr-4" value="상품색상" style="shape=table;startSize=30;container=1;collapsible=1;childLayout=tableLayout;fixedRows=1;rowLines=0;fontStyle=1;align=center;resizeLast=1;html=1;" vertex="1" parent="1">
                    <mxGeometry y="413" width="110" height="120" as="geometry"/>
                </mxCell>
                <mxCell id="CrgSgGHlS2bQ2M_Z-CYr-5" value="" style="shape=tableRow;horizontal=0;startSize=0;swimlaneHead=0;swimlaneBody=0;fillColor=none;collapsible=0;dropTarget=0;points=[[0,0.5],[1,0.5]];portConstraint=eastwest;top=0;left=0;right=0;bottom=1;" vertex="1" parent="CrgSgGHlS2bQ2M_Z-CYr-4">
                    <mxGeometry y="30" width="110" height="30" as="geometry"/>
                </mxCell>
                <mxCell id="CrgSgGHlS2bQ2M_Z-CYr-6" value="PK" style="shape=partialRectangle;connectable=0;fillColor=none;top=0;left=0;bottom=0;right=0;fontStyle=1;overflow=hidden;whiteSpace=wrap;html=1;" vertex="1" parent="CrgSgGHlS2bQ2M_Z-CYr-5">
                    <mxGeometry width="30" height="30" as="geometry">
                        <mxRectangle width="30" height="30" as="alternateBounds"/>
                    </mxGeometry>
                </mxCell>
                <mxCell id="CrgSgGHlS2bQ2M_Z-CYr-7" value="NO" style="shape=partialRectangle;connectable=0;fillColor=none;top=0;left=0;bottom=0;right=0;align=left;spacingLeft=6;fontStyle=5;overflow=hidden;whiteSpace=wrap;html=1;" vertex="1" parent="CrgSgGHlS2bQ2M_Z-CYr-5">
                    <mxGeometry x="30" width="80" height="30" as="geometry">
                        <mxRectangle width="80" height="30" as="alternateBounds"/>
                    </mxGeometry>
                </mxCell>
                <mxCell id="CrgSgGHlS2bQ2M_Z-CYr-29" value="" style="shape=tableRow;horizontal=0;startSize=0;swimlaneHead=0;swimlaneBody=0;fillColor=none;collapsible=0;dropTarget=0;points=[[0,0.5],[1,0.5]];portConstraint=eastwest;top=0;left=0;right=0;bottom=1;html=1;" vertex="1" parent="CrgSgGHlS2bQ2M_Z-CYr-4">
                    <mxGeometry y="60" width="110" height="30" as="geometry"/>
                </mxCell>
                <mxCell id="CrgSgGHlS2bQ2M_Z-CYr-30" value="FK" style="shape=partialRectangle;connectable=0;fillColor=none;top=0;left=0;bottom=0;right=0;fontStyle=1;overflow=hidden;html=1;whiteSpace=wrap;" vertex="1" parent="CrgSgGHlS2bQ2M_Z-CYr-29">
                    <mxGeometry width="30" height="30" as="geometry">
                        <mxRectangle width="30" height="30" as="alternateBounds"/>
                    </mxGeometry>
                </mxCell>
                <mxCell id="CrgSgGHlS2bQ2M_Z-CYr-31" value="상품번호" style="shape=partialRectangle;connectable=0;fillColor=none;top=0;left=0;bottom=0;right=0;align=left;spacingLeft=6;fontStyle=5;overflow=hidden;html=1;whiteSpace=wrap;" vertex="1" parent="CrgSgGHlS2bQ2M_Z-CYr-29">
                    <mxGeometry x="30" width="80" height="30" as="geometry">
                        <mxRectangle width="80" height="30" as="alternateBounds"/>
                    </mxGeometry>
                </mxCell>
                <mxCell id="CrgSgGHlS2bQ2M_Z-CYr-8" value="" style="shape=tableRow;horizontal=0;startSize=0;swimlaneHead=0;swimlaneBody=0;fillColor=none;collapsible=0;dropTarget=0;points=[[0,0.5],[1,0.5]];portConstraint=eastwest;top=0;left=0;right=0;bottom=0;" vertex="1" parent="CrgSgGHlS2bQ2M_Z-CYr-4">
                    <mxGeometry y="90" width="110" height="30" as="geometry"/>
                </mxCell>
                <mxCell id="CrgSgGHlS2bQ2M_Z-CYr-9" value="" style="shape=partialRectangle;connectable=0;fillColor=none;top=0;left=0;bottom=0;right=0;editable=1;overflow=hidden;whiteSpace=wrap;html=1;" vertex="1" parent="CrgSgGHlS2bQ2M_Z-CYr-8">
                    <mxGeometry width="30" height="30" as="geometry">
                        <mxRectangle width="30" height="30" as="alternateBounds"/>
                    </mxGeometry>
                </mxCell>
                <mxCell id="CrgSgGHlS2bQ2M_Z-CYr-10" value="색상" style="shape=partialRectangle;connectable=0;fillColor=none;top=0;left=0;bottom=0;right=0;align=left;spacingLeft=6;overflow=hidden;whiteSpace=wrap;html=1;" vertex="1" parent="CrgSgGHlS2bQ2M_Z-CYr-8">
                    <mxGeometry x="30" width="80" height="30" as="geometry">
                        <mxRectangle width="80" height="30" as="alternateBounds"/>
                    </mxGeometry>
                </mxCell>
            </root>
        </mxGraphModel>
    </diagram>
    <diagram id="ZU_IM5Mz4QIWT1jNmuYu" name="학사 ERD">
        <mxGraphModel dx="1869" dy="521" grid="1" gridSize="10" guides="1" tooltips="1" connect="1" arrows="1" fold="1" page="1" pageScale="1" pageWidth="827" pageHeight="1169" math="0" shadow="0">
            <root>
                <mxCell id="0"/>
                <mxCell id="1" parent="0"/>
                <mxCell id="KAI-MuqsZDFZmSBWRxWh-40" style="edgeStyle=none;html=1;exitX=1;exitY=0.5;exitDx=0;exitDy=0;endArrow=none;endFill=0;" edge="1" parent="1" source="KAI-MuqsZDFZmSBWRxWh-3">
                    <mxGeometry relative="1" as="geometry">
                        <mxPoint x="90" y="70" as="targetPoint"/>
                    </mxGeometry>
                </mxCell>
                <mxCell id="KAI-MuqsZDFZmSBWRxWh-3" value="이름" style="ellipse;whiteSpace=wrap;html=1;align=center;" vertex="1" parent="1">
                    <mxGeometry x="-90" y="50" width="100" height="40" as="geometry"/>
                </mxCell>
                <mxCell id="KAI-MuqsZDFZmSBWRxWh-41" style="edgeStyle=none;html=1;exitX=1;exitY=0.5;exitDx=0;exitDy=0;endArrow=none;endFill=0;" edge="1" parent="1" source="KAI-MuqsZDFZmSBWRxWh-4">
                    <mxGeometry relative="1" as="geometry">
                        <mxPoint x="90" y="70" as="targetPoint"/>
                    </mxGeometry>
                </mxCell>
                <mxCell id="KAI-MuqsZDFZmSBWRxWh-4" value="키" style="ellipse;whiteSpace=wrap;html=1;align=center;" vertex="1" parent="1">
                    <mxGeometry x="-90" y="100" width="100" height="40" as="geometry"/>
                </mxCell>
                <mxCell id="KAI-MuqsZDFZmSBWRxWh-42" style="edgeStyle=none;html=1;exitX=1;exitY=0.5;exitDx=0;exitDy=0;entryX=0;entryY=0.5;entryDx=0;entryDy=0;endArrow=none;endFill=0;" edge="1" parent="1" source="KAI-MuqsZDFZmSBWRxWh-5" target="KAI-MuqsZDFZmSBWRxWh-10">
                    <mxGeometry relative="1" as="geometry"/>
                </mxCell>
                <mxCell id="KAI-MuqsZDFZmSBWRxWh-5" value="시작일" style="ellipse;whiteSpace=wrap;html=1;align=center;" vertex="1" parent="1">
                    <mxGeometry x="-90" y="250" width="100" height="40" as="geometry"/>
                </mxCell>
                <mxCell id="KAI-MuqsZDFZmSBWRxWh-43" style="edgeStyle=none;html=1;exitX=1;exitY=0.5;exitDx=0;exitDy=0;endArrow=none;endFill=0;" edge="1" parent="1" source="KAI-MuqsZDFZmSBWRxWh-6">
                    <mxGeometry relative="1" as="geometry">
                        <mxPoint x="90" y="350" as="targetPoint"/>
                    </mxGeometry>
                </mxCell>
                <mxCell id="KAI-MuqsZDFZmSBWRxWh-6" value="종료일" style="ellipse;whiteSpace=wrap;html=1;align=center;" vertex="1" parent="1">
                    <mxGeometry x="-90" y="300" width="100" height="40" as="geometry"/>
                </mxCell>
                <mxCell id="KAI-MuqsZDFZmSBWRxWh-44" style="edgeStyle=none;html=1;exitX=1;exitY=0.5;exitDx=0;exitDy=0;endArrow=none;endFill=0;" edge="1" parent="1" source="KAI-MuqsZDFZmSBWRxWh-7">
                    <mxGeometry relative="1" as="geometry">
                        <mxPoint x="90" y="350" as="targetPoint"/>
                    </mxGeometry>
                </mxCell>
                <mxCell id="KAI-MuqsZDFZmSBWRxWh-7" value="과목명" style="ellipse;whiteSpace=wrap;html=1;align=center;" vertex="1" parent="1">
                    <mxGeometry x="-90" y="350" width="100" height="40" as="geometry"/>
                </mxCell>
                <mxCell id="KAI-MuqsZDFZmSBWRxWh-9" value="학생" style="whiteSpace=wrap;html=1;align=center;" vertex="1" parent="1">
                    <mxGeometry x="90" y="50" width="100" height="40" as="geometry"/>
                </mxCell>
                <mxCell id="KAI-MuqsZDFZmSBWRxWh-10" value="과목" style="whiteSpace=wrap;html=1;align=center;" vertex="1" parent="1">
                    <mxGeometry x="90" y="330" width="100" height="40" as="geometry"/>
                </mxCell>
                <mxCell id="KAI-MuqsZDFZmSBWRxWh-45" style="edgeStyle=none;html=1;exitX=1;exitY=0.5;exitDx=0;exitDy=0;entryX=0;entryY=0.5;entryDx=0;entryDy=0;endArrow=none;endFill=0;" edge="1" parent="1" source="KAI-MuqsZDFZmSBWRxWh-13" target="KAI-MuqsZDFZmSBWRxWh-10">
                    <mxGeometry relative="1" as="geometry"/>
                </mxCell>
                <mxCell id="KAI-MuqsZDFZmSBWRxWh-13" value="과목코드" style="ellipse;whiteSpace=wrap;html=1;align=center;fontStyle=4;" vertex="1" parent="1">
                    <mxGeometry x="-90" y="400" width="100" height="40" as="geometry"/>
                </mxCell>
                <mxCell id="KAI-MuqsZDFZmSBWRxWh-39" style="edgeStyle=none;html=1;exitX=1;exitY=0.5;exitDx=0;exitDy=0;entryX=0;entryY=0.5;entryDx=0;entryDy=0;endArrow=none;endFill=0;" edge="1" parent="1" source="KAI-MuqsZDFZmSBWRxWh-14" target="KAI-MuqsZDFZmSBWRxWh-9">
                    <mxGeometry relative="1" as="geometry"/>
                </mxCell>
                <mxCell id="KAI-MuqsZDFZmSBWRxWh-14" value="학번" style="ellipse;whiteSpace=wrap;html=1;align=center;fontStyle=4;" vertex="1" parent="1">
                    <mxGeometry x="-90" width="100" height="40" as="geometry"/>
                </mxCell>
                <mxCell id="KAI-MuqsZDFZmSBWRxWh-15" value="수강번호" style="ellipse;whiteSpace=wrap;html=1;align=center;fontStyle=4;" vertex="1" parent="1">
                    <mxGeometry x="220" y="160" width="100" height="40" as="geometry"/>
                </mxCell>
                <mxCell id="KAI-MuqsZDFZmSBWRxWh-16" value="수강일자" style="ellipse;whiteSpace=wrap;html=1;align=center;" vertex="1" parent="1">
                    <mxGeometry x="220" y="210" width="100" height="40" as="geometry"/>
                </mxCell>
                <mxCell id="KAI-MuqsZDFZmSBWRxWh-19" value="학과" style="whiteSpace=wrap;html=1;align=center;" vertex="1" parent="1">
                    <mxGeometry x="520" y="50" width="100" height="40" as="geometry"/>
                </mxCell>
                <mxCell id="KAI-MuqsZDFZmSBWRxWh-20" value="교수" style="whiteSpace=wrap;html=1;align=center;" vertex="1" parent="1">
                    <mxGeometry x="520" y="330" width="100" height="40" as="geometry"/>
                </mxCell>
                <mxCell id="KAI-MuqsZDFZmSBWRxWh-46" style="edgeStyle=none;html=1;exitX=0;exitY=0.5;exitDx=0;exitDy=0;entryX=1;entryY=0.5;entryDx=0;entryDy=0;endArrow=none;endFill=0;" edge="1" parent="1" source="KAI-MuqsZDFZmSBWRxWh-22" target="KAI-MuqsZDFZmSBWRxWh-19">
                    <mxGeometry relative="1" as="geometry"/>
                </mxCell>
                <mxCell id="KAI-MuqsZDFZmSBWRxWh-22" value="학과코드" style="ellipse;whiteSpace=wrap;html=1;align=center;fontStyle=4;" vertex="1" parent="1">
                    <mxGeometry x="650" y="20" width="100" height="40" as="geometry"/>
                </mxCell>
                <mxCell id="KAI-MuqsZDFZmSBWRxWh-47" style="edgeStyle=none;html=1;exitX=0;exitY=0.5;exitDx=0;exitDy=0;entryX=1;entryY=0.5;entryDx=0;entryDy=0;endArrow=none;endFill=0;" edge="1" parent="1" source="KAI-MuqsZDFZmSBWRxWh-23" target="KAI-MuqsZDFZmSBWRxWh-19">
                    <mxGeometry relative="1" as="geometry">
                        <mxPoint x="610" y="70" as="targetPoint"/>
                    </mxGeometry>
                </mxCell>
                <mxCell id="KAI-MuqsZDFZmSBWRxWh-23" value="학과명" style="ellipse;whiteSpace=wrap;html=1;align=center;" vertex="1" parent="1">
                    <mxGeometry x="650" y="80" width="100" height="40" as="geometry"/>
                </mxCell>
                <mxCell id="KAI-MuqsZDFZmSBWRxWh-48" style="edgeStyle=none;html=1;exitX=0;exitY=0.5;exitDx=0;exitDy=0;entryX=1;entryY=0.5;entryDx=0;entryDy=0;endArrow=none;endFill=0;" edge="1" parent="1" source="KAI-MuqsZDFZmSBWRxWh-24" target="KAI-MuqsZDFZmSBWRxWh-20">
                    <mxGeometry relative="1" as="geometry"/>
                </mxCell>
                <mxCell id="KAI-MuqsZDFZmSBWRxWh-24" value="교수코드" style="ellipse;whiteSpace=wrap;html=1;align=center;fontStyle=4;" vertex="1" parent="1">
                    <mxGeometry x="650" y="300" width="100" height="40" as="geometry"/>
                </mxCell>
                <mxCell id="KAI-MuqsZDFZmSBWRxWh-49" style="edgeStyle=none;html=1;exitX=0;exitY=0.5;exitDx=0;exitDy=0;endArrow=none;endFill=0;" edge="1" parent="1" source="KAI-MuqsZDFZmSBWRxWh-26">
                    <mxGeometry relative="1" as="geometry">
                        <mxPoint x="620" y="350" as="targetPoint"/>
                    </mxGeometry>
                </mxCell>
                <mxCell id="KAI-MuqsZDFZmSBWRxWh-26" value="교수명" style="ellipse;whiteSpace=wrap;html=1;align=center;" vertex="1" parent="1">
                    <mxGeometry x="650" y="360" width="100" height="40" as="geometry"/>
                </mxCell>
                <mxCell id="KAI-MuqsZDFZmSBWRxWh-27" value="" style="endArrow=none;html=1;rounded=0;exitX=0.5;exitY=1;exitDx=0;exitDy=0;entryX=0.5;entryY=0;entryDx=0;entryDy=0;" edge="1" parent="1" source="KAI-MuqsZDFZmSBWRxWh-9" target="KAI-MuqsZDFZmSBWRxWh-10">
                    <mxGeometry relative="1" as="geometry">
                        <mxPoint x="330" y="170" as="sourcePoint"/>
                        <mxPoint x="490" y="170" as="targetPoint"/>
                    </mxGeometry>
                </mxCell>
                <mxCell id="KAI-MuqsZDFZmSBWRxWh-28" value="M" style="resizable=0;html=1;whiteSpace=wrap;align=left;verticalAlign=bottom;" connectable="0" vertex="1" parent="KAI-MuqsZDFZmSBWRxWh-27">
                    <mxGeometry x="-1" relative="1" as="geometry">
                        <mxPoint x="3" y="21" as="offset"/>
                    </mxGeometry>
                </mxCell>
                <mxCell id="KAI-MuqsZDFZmSBWRxWh-29" value="N" style="resizable=0;html=1;whiteSpace=wrap;align=right;verticalAlign=bottom;" connectable="0" vertex="1" parent="KAI-MuqsZDFZmSBWRxWh-27">
                    <mxGeometry x="1" relative="1" as="geometry">
                        <mxPoint x="15" y="-1" as="offset"/>
                    </mxGeometry>
                </mxCell>
                <mxCell id="iFqrkjLnssSuW4VGjCPL-2" style="edgeStyle=none;html=1;exitX=1;exitY=0.5;exitDx=0;exitDy=0;entryX=0;entryY=0.5;entryDx=0;entryDy=0;endArrow=none;endFill=0;" edge="1" parent="1" source="KAI-MuqsZDFZmSBWRxWh-11" target="KAI-MuqsZDFZmSBWRxWh-16">
                    <mxGeometry relative="1" as="geometry"/>
                </mxCell>
                <mxCell id="KAI-MuqsZDFZmSBWRxWh-11" value="수강" style="shape=rhombus;perimeter=rhombusPerimeter;whiteSpace=wrap;html=1;align=center;" vertex="1" parent="1">
                    <mxGeometry x="80" y="180" width="120" height="60" as="geometry"/>
                </mxCell>
                <mxCell id="KAI-MuqsZDFZmSBWRxWh-30" value="" style="endArrow=none;html=1;rounded=0;entryX=0.5;entryY=0;entryDx=0;entryDy=0;exitX=0.5;exitY=1;exitDx=0;exitDy=0;" edge="1" parent="1" source="KAI-MuqsZDFZmSBWRxWh-19" target="KAI-MuqsZDFZmSBWRxWh-20">
                    <mxGeometry relative="1" as="geometry">
                        <mxPoint x="330" y="170" as="sourcePoint"/>
                        <mxPoint x="490" y="170" as="targetPoint"/>
                    </mxGeometry>
                </mxCell>
                <mxCell id="KAI-MuqsZDFZmSBWRxWh-31" value="1" style="resizable=0;html=1;whiteSpace=wrap;align=left;verticalAlign=bottom;" connectable="0" vertex="1" parent="KAI-MuqsZDFZmSBWRxWh-30">
                    <mxGeometry x="-1" relative="1" as="geometry">
                        <mxPoint x="4" y="19" as="offset"/>
                    </mxGeometry>
                </mxCell>
                <mxCell id="KAI-MuqsZDFZmSBWRxWh-32" value="N" style="resizable=0;html=1;whiteSpace=wrap;align=right;verticalAlign=bottom;" connectable="0" vertex="1" parent="KAI-MuqsZDFZmSBWRxWh-30">
                    <mxGeometry x="1" relative="1" as="geometry"/>
                </mxCell>
                <mxCell id="KAI-MuqsZDFZmSBWRxWh-21" value="소속" style="shape=rhombus;perimeter=rhombusPerimeter;whiteSpace=wrap;html=1;align=center;" vertex="1" parent="1">
                    <mxGeometry x="510" y="180" width="120" height="60" as="geometry"/>
                </mxCell>
                <mxCell id="KAI-MuqsZDFZmSBWRxWh-33" value="" style="endArrow=none;html=1;rounded=0;entryX=1;entryY=0.5;entryDx=0;entryDy=0;exitX=0;exitY=0.5;exitDx=0;exitDy=0;" edge="1" parent="1" source="KAI-MuqsZDFZmSBWRxWh-19" target="KAI-MuqsZDFZmSBWRxWh-9">
                    <mxGeometry relative="1" as="geometry">
                        <mxPoint x="330" y="170" as="sourcePoint"/>
                        <mxPoint x="490" y="170" as="targetPoint"/>
                    </mxGeometry>
                </mxCell>
                <mxCell id="KAI-MuqsZDFZmSBWRxWh-34" value="1" style="resizable=0;html=1;whiteSpace=wrap;align=left;verticalAlign=bottom;" connectable="0" vertex="1" parent="KAI-MuqsZDFZmSBWRxWh-33">
                    <mxGeometry x="-1" relative="1" as="geometry">
                        <mxPoint x="-17" y="-3" as="offset"/>
                    </mxGeometry>
                </mxCell>
                <mxCell id="KAI-MuqsZDFZmSBWRxWh-35" value="N" style="resizable=0;html=1;whiteSpace=wrap;align=right;verticalAlign=bottom;" connectable="0" vertex="1" parent="KAI-MuqsZDFZmSBWRxWh-33">
                    <mxGeometry x="1" relative="1" as="geometry">
                        <mxPoint x="14" y="-3" as="offset"/>
                    </mxGeometry>
                </mxCell>
                <mxCell id="KAI-MuqsZDFZmSBWRxWh-36" value="" style="endArrow=none;html=1;rounded=0;entryX=1;entryY=0.5;entryDx=0;entryDy=0;exitX=0;exitY=0.5;exitDx=0;exitDy=0;" edge="1" parent="1" source="KAI-MuqsZDFZmSBWRxWh-20" target="KAI-MuqsZDFZmSBWRxWh-10">
                    <mxGeometry relative="1" as="geometry">
                        <mxPoint x="330" y="170" as="sourcePoint"/>
                        <mxPoint x="490" y="170" as="targetPoint"/>
                    </mxGeometry>
                </mxCell>
                <mxCell id="KAI-MuqsZDFZmSBWRxWh-37" value="1" style="resizable=0;html=1;whiteSpace=wrap;align=left;verticalAlign=bottom;" connectable="0" vertex="1" parent="KAI-MuqsZDFZmSBWRxWh-36">
                    <mxGeometry x="-1" relative="1" as="geometry">
                        <mxPoint x="-16" y="-3" as="offset"/>
                    </mxGeometry>
                </mxCell>
                <mxCell id="KAI-MuqsZDFZmSBWRxWh-38" value="N" style="resizable=0;html=1;whiteSpace=wrap;align=right;verticalAlign=bottom;" connectable="0" vertex="1" parent="KAI-MuqsZDFZmSBWRxWh-36">
                    <mxGeometry x="1" relative="1" as="geometry">
                        <mxPoint x="15" y="-1" as="offset"/>
                    </mxGeometry>
                </mxCell>
                <mxCell id="KAI-MuqsZDFZmSBWRxWh-18" value="소속" style="shape=rhombus;perimeter=rhombusPerimeter;whiteSpace=wrap;html=1;align=center;" vertex="1" parent="1">
                    <mxGeometry x="300" y="40" width="120" height="60" as="geometry"/>
                </mxCell>
                <mxCell id="KAI-MuqsZDFZmSBWRxWh-17" value="강의" style="shape=rhombus;perimeter=rhombusPerimeter;whiteSpace=wrap;html=1;align=center;" vertex="1" parent="1">
                    <mxGeometry x="300" y="320" width="120" height="60" as="geometry"/>
                </mxCell>
                <mxCell id="iFqrkjLnssSuW4VGjCPL-1" style="edgeStyle=none;html=1;exitX=1;exitY=0.5;exitDx=0;exitDy=0;entryX=0;entryY=0.5;entryDx=0;entryDy=0;endArrow=none;endFill=0;" edge="1" parent="1" source="KAI-MuqsZDFZmSBWRxWh-11" target="KAI-MuqsZDFZmSBWRxWh-15">
                    <mxGeometry relative="1" as="geometry"/>
                </mxCell>
            </root>
        </mxGraphModel>
    </diagram>
    <diagram id="7rkqTIK7sFIw8cO7G2dl" name="페이지-5">
        <mxGraphModel dx="1869" dy="521" grid="1" gridSize="10" guides="1" tooltips="1" connect="1" arrows="1" fold="1" page="1" pageScale="1" pageWidth="827" pageHeight="1169" math="0" shadow="0">
            <root>
                <mxCell id="0"/>
                <mxCell id="1" parent="0"/>
                <mxCell id="CvyXqUvLx3NW92NQcw2D-1" value="학생" style="shape=table;startSize=30;container=1;collapsible=1;childLayout=tableLayout;fixedRows=1;rowLines=0;fontStyle=1;align=center;resizeLast=1;html=1;whiteSpace=wrap;" vertex="1" parent="1">
                    <mxGeometry x="-110" y="10" width="180" height="150" as="geometry"/>
                </mxCell>
                <mxCell id="CvyXqUvLx3NW92NQcw2D-2" value="" style="shape=tableRow;horizontal=0;startSize=0;swimlaneHead=0;swimlaneBody=0;fillColor=none;collapsible=0;dropTarget=0;points=[[0,0.5],[1,0.5]];portConstraint=eastwest;top=0;left=0;right=0;bottom=0;html=1;" vertex="1" parent="CvyXqUvLx3NW92NQcw2D-1">
                    <mxGeometry y="30" width="180" height="30" as="geometry"/>
                </mxCell>
                <mxCell id="CvyXqUvLx3NW92NQcw2D-3" value="PK" style="shape=partialRectangle;connectable=0;fillColor=none;top=0;left=0;bottom=0;right=0;fontStyle=1;overflow=hidden;html=1;whiteSpace=wrap;" vertex="1" parent="CvyXqUvLx3NW92NQcw2D-2">
                    <mxGeometry width="60" height="30" as="geometry">
                        <mxRectangle width="60" height="30" as="alternateBounds"/>
                    </mxGeometry>
                </mxCell>
                <mxCell id="CvyXqUvLx3NW92NQcw2D-4" value="학번" style="shape=partialRectangle;connectable=0;fillColor=none;top=0;left=0;bottom=0;right=0;align=left;spacingLeft=6;fontStyle=5;overflow=hidden;html=1;whiteSpace=wrap;" vertex="1" parent="CvyXqUvLx3NW92NQcw2D-2">
                    <mxGeometry x="60" width="120" height="30" as="geometry">
                        <mxRectangle width="120" height="30" as="alternateBounds"/>
                    </mxGeometry>
                </mxCell>
                <mxCell id="CvyXqUvLx3NW92NQcw2D-5" value="" style="shape=tableRow;horizontal=0;startSize=0;swimlaneHead=0;swimlaneBody=0;fillColor=none;collapsible=0;dropTarget=0;points=[[0,0.5],[1,0.5]];portConstraint=eastwest;top=0;left=0;right=0;bottom=1;html=1;" vertex="1" parent="CvyXqUvLx3NW92NQcw2D-1">
                    <mxGeometry y="60" width="180" height="30" as="geometry"/>
                </mxCell>
                <mxCell id="CvyXqUvLx3NW92NQcw2D-6" value="FK" style="shape=partialRectangle;connectable=0;fillColor=none;top=0;left=0;bottom=0;right=0;fontStyle=1;overflow=hidden;html=1;whiteSpace=wrap;" vertex="1" parent="CvyXqUvLx3NW92NQcw2D-5">
                    <mxGeometry width="60" height="30" as="geometry">
                        <mxRectangle width="60" height="30" as="alternateBounds"/>
                    </mxGeometry>
                </mxCell>
                <mxCell id="CvyXqUvLx3NW92NQcw2D-7" value="학과코드" style="shape=partialRectangle;connectable=0;fillColor=none;top=0;left=0;bottom=0;right=0;align=left;spacingLeft=6;fontStyle=5;overflow=hidden;html=1;whiteSpace=wrap;" vertex="1" parent="CvyXqUvLx3NW92NQcw2D-5">
                    <mxGeometry x="60" width="120" height="30" as="geometry">
                        <mxRectangle width="120" height="30" as="alternateBounds"/>
                    </mxGeometry>
                </mxCell>
                <mxCell id="CvyXqUvLx3NW92NQcw2D-8" value="" style="shape=tableRow;horizontal=0;startSize=0;swimlaneHead=0;swimlaneBody=0;fillColor=none;collapsible=0;dropTarget=0;points=[[0,0.5],[1,0.5]];portConstraint=eastwest;top=0;left=0;right=0;bottom=0;html=1;" vertex="1" parent="CvyXqUvLx3NW92NQcw2D-1">
                    <mxGeometry y="90" width="180" height="30" as="geometry"/>
                </mxCell>
                <mxCell id="CvyXqUvLx3NW92NQcw2D-9" value="" style="shape=partialRectangle;connectable=0;fillColor=none;top=0;left=0;bottom=0;right=0;editable=1;overflow=hidden;html=1;whiteSpace=wrap;" vertex="1" parent="CvyXqUvLx3NW92NQcw2D-8">
                    <mxGeometry width="60" height="30" as="geometry">
                        <mxRectangle width="60" height="30" as="alternateBounds"/>
                    </mxGeometry>
                </mxCell>
                <mxCell id="CvyXqUvLx3NW92NQcw2D-10" value="이름" style="shape=partialRectangle;connectable=0;fillColor=none;top=0;left=0;bottom=0;right=0;align=left;spacingLeft=6;overflow=hidden;html=1;whiteSpace=wrap;" vertex="1" parent="CvyXqUvLx3NW92NQcw2D-8">
                    <mxGeometry x="60" width="120" height="30" as="geometry">
                        <mxRectangle width="120" height="30" as="alternateBounds"/>
                    </mxGeometry>
                </mxCell>
                <mxCell id="CvyXqUvLx3NW92NQcw2D-11" value="" style="shape=tableRow;horizontal=0;startSize=0;swimlaneHead=0;swimlaneBody=0;fillColor=none;collapsible=0;dropTarget=0;points=[[0,0.5],[1,0.5]];portConstraint=eastwest;top=0;left=0;right=0;bottom=0;html=1;" vertex="1" parent="CvyXqUvLx3NW92NQcw2D-1">
                    <mxGeometry y="120" width="180" height="30" as="geometry"/>
                </mxCell>
                <mxCell id="CvyXqUvLx3NW92NQcw2D-12" value="" style="shape=partialRectangle;connectable=0;fillColor=none;top=0;left=0;bottom=0;right=0;editable=1;overflow=hidden;html=1;whiteSpace=wrap;" vertex="1" parent="CvyXqUvLx3NW92NQcw2D-11">
                    <mxGeometry width="60" height="30" as="geometry">
                        <mxRectangle width="60" height="30" as="alternateBounds"/>
                    </mxGeometry>
                </mxCell>
                <mxCell id="CvyXqUvLx3NW92NQcw2D-13" value="키" style="shape=partialRectangle;connectable=0;fillColor=none;top=0;left=0;bottom=0;right=0;align=left;spacingLeft=6;overflow=hidden;html=1;whiteSpace=wrap;" vertex="1" parent="CvyXqUvLx3NW92NQcw2D-11">
                    <mxGeometry x="60" width="120" height="30" as="geometry">
                        <mxRectangle width="120" height="30" as="alternateBounds"/>
                    </mxGeometry>
                </mxCell>
                <mxCell id="CvyXqUvLx3NW92NQcw2D-14" value="학과" style="shape=table;startSize=30;container=1;collapsible=1;childLayout=tableLayout;fixedRows=1;rowLines=0;fontStyle=1;align=center;resizeLast=1;html=1;whiteSpace=wrap;" vertex="1" parent="1">
                    <mxGeometry x="610" y="10" width="180" height="90" as="geometry"/>
                </mxCell>
                <mxCell id="CvyXqUvLx3NW92NQcw2D-15" value="" style="shape=tableRow;horizontal=0;startSize=0;swimlaneHead=0;swimlaneBody=0;fillColor=none;collapsible=0;dropTarget=0;points=[[0,0.5],[1,0.5]];portConstraint=eastwest;top=0;left=0;right=0;bottom=0;html=1;" vertex="1" parent="CvyXqUvLx3NW92NQcw2D-14">
                    <mxGeometry y="30" width="180" height="30" as="geometry"/>
                </mxCell>
                <mxCell id="CvyXqUvLx3NW92NQcw2D-16" value="PK" style="shape=partialRectangle;connectable=0;fillColor=none;top=0;left=0;bottom=0;right=0;fontStyle=1;overflow=hidden;html=1;whiteSpace=wrap;" vertex="1" parent="CvyXqUvLx3NW92NQcw2D-15">
                    <mxGeometry width="60" height="30" as="geometry">
                        <mxRectangle width="60" height="30" as="alternateBounds"/>
                    </mxGeometry>
                </mxCell>
                <mxCell id="CvyXqUvLx3NW92NQcw2D-17" value="학과코드" style="shape=partialRectangle;connectable=0;fillColor=none;top=0;left=0;bottom=0;right=0;align=left;spacingLeft=6;fontStyle=5;overflow=hidden;html=1;whiteSpace=wrap;" vertex="1" parent="CvyXqUvLx3NW92NQcw2D-15">
                    <mxGeometry x="60" width="120" height="30" as="geometry">
                        <mxRectangle width="120" height="30" as="alternateBounds"/>
                    </mxGeometry>
                </mxCell>
                <mxCell id="CvyXqUvLx3NW92NQcw2D-21" value="" style="shape=tableRow;horizontal=0;startSize=0;swimlaneHead=0;swimlaneBody=0;fillColor=none;collapsible=0;dropTarget=0;points=[[0,0.5],[1,0.5]];portConstraint=eastwest;top=0;left=0;right=0;bottom=0;html=1;" vertex="1" parent="CvyXqUvLx3NW92NQcw2D-14">
                    <mxGeometry y="60" width="180" height="30" as="geometry"/>
                </mxCell>
                <mxCell id="CvyXqUvLx3NW92NQcw2D-22" value="" style="shape=partialRectangle;connectable=0;fillColor=none;top=0;left=0;bottom=0;right=0;editable=1;overflow=hidden;html=1;whiteSpace=wrap;" vertex="1" parent="CvyXqUvLx3NW92NQcw2D-21">
                    <mxGeometry width="60" height="30" as="geometry">
                        <mxRectangle width="60" height="30" as="alternateBounds"/>
                    </mxGeometry>
                </mxCell>
                <mxCell id="CvyXqUvLx3NW92NQcw2D-23" value="학과명" style="shape=partialRectangle;connectable=0;fillColor=none;top=0;left=0;bottom=0;right=0;align=left;spacingLeft=6;overflow=hidden;html=1;whiteSpace=wrap;" vertex="1" parent="CvyXqUvLx3NW92NQcw2D-21">
                    <mxGeometry x="60" width="120" height="30" as="geometry">
                        <mxRectangle width="120" height="30" as="alternateBounds"/>
                    </mxGeometry>
                </mxCell>
                <mxCell id="CvyXqUvLx3NW92NQcw2D-27" value="교수" style="shape=table;startSize=20;container=1;collapsible=1;childLayout=tableLayout;fixedRows=1;rowLines=0;fontStyle=1;align=center;resizeLast=1;html=1;whiteSpace=wrap;" vertex="1" parent="1">
                    <mxGeometry x="610" y="290" width="180" height="110" as="geometry"/>
                </mxCell>
                <mxCell id="CvyXqUvLx3NW92NQcw2D-28" value="" style="shape=tableRow;horizontal=0;startSize=0;swimlaneHead=0;swimlaneBody=0;fillColor=none;collapsible=0;dropTarget=0;points=[[0,0.5],[1,0.5]];portConstraint=eastwest;top=0;left=0;right=0;bottom=0;html=1;" vertex="1" parent="CvyXqUvLx3NW92NQcw2D-27">
                    <mxGeometry y="20" width="180" height="30" as="geometry"/>
                </mxCell>
                <mxCell id="CvyXqUvLx3NW92NQcw2D-29" value="PK" style="shape=partialRectangle;connectable=0;fillColor=none;top=0;left=0;bottom=0;right=0;fontStyle=1;overflow=hidden;html=1;whiteSpace=wrap;" vertex="1" parent="CvyXqUvLx3NW92NQcw2D-28">
                    <mxGeometry width="60" height="30" as="geometry">
                        <mxRectangle width="60" height="30" as="alternateBounds"/>
                    </mxGeometry>
                </mxCell>
                <mxCell id="CvyXqUvLx3NW92NQcw2D-30" value="교수코드" style="shape=partialRectangle;connectable=0;fillColor=none;top=0;left=0;bottom=0;right=0;align=left;spacingLeft=6;fontStyle=5;overflow=hidden;html=1;whiteSpace=wrap;" vertex="1" parent="CvyXqUvLx3NW92NQcw2D-28">
                    <mxGeometry x="60" width="120" height="30" as="geometry">
                        <mxRectangle width="120" height="30" as="alternateBounds"/>
                    </mxGeometry>
                </mxCell>
                <mxCell id="CvyXqUvLx3NW92NQcw2D-31" value="" style="shape=tableRow;horizontal=0;startSize=0;swimlaneHead=0;swimlaneBody=0;fillColor=none;collapsible=0;dropTarget=0;points=[[0,0.5],[1,0.5]];portConstraint=eastwest;top=0;left=0;right=0;bottom=1;html=1;" vertex="1" parent="CvyXqUvLx3NW92NQcw2D-27">
                    <mxGeometry y="50" width="180" height="30" as="geometry"/>
                </mxCell>
                <mxCell id="CvyXqUvLx3NW92NQcw2D-32" value="FK" style="shape=partialRectangle;connectable=0;fillColor=none;top=0;left=0;bottom=0;right=0;fontStyle=1;overflow=hidden;html=1;whiteSpace=wrap;" vertex="1" parent="CvyXqUvLx3NW92NQcw2D-31">
                    <mxGeometry width="60" height="30" as="geometry">
                        <mxRectangle width="60" height="30" as="alternateBounds"/>
                    </mxGeometry>
                </mxCell>
                <mxCell id="CvyXqUvLx3NW92NQcw2D-33" value="학과코드" style="shape=partialRectangle;connectable=0;fillColor=none;top=0;left=0;bottom=0;right=0;align=left;spacingLeft=6;fontStyle=5;overflow=hidden;html=1;whiteSpace=wrap;" vertex="1" parent="CvyXqUvLx3NW92NQcw2D-31">
                    <mxGeometry x="60" width="120" height="30" as="geometry">
                        <mxRectangle width="120" height="30" as="alternateBounds"/>
                    </mxGeometry>
                </mxCell>
                <mxCell id="CvyXqUvLx3NW92NQcw2D-34" value="" style="shape=tableRow;horizontal=0;startSize=0;swimlaneHead=0;swimlaneBody=0;fillColor=none;collapsible=0;dropTarget=0;points=[[0,0.5],[1,0.5]];portConstraint=eastwest;top=0;left=0;right=0;bottom=0;html=1;" vertex="1" parent="CvyXqUvLx3NW92NQcw2D-27">
                    <mxGeometry y="80" width="180" height="30" as="geometry"/>
                </mxCell>
                <mxCell id="CvyXqUvLx3NW92NQcw2D-35" value="" style="shape=partialRectangle;connectable=0;fillColor=none;top=0;left=0;bottom=0;right=0;editable=1;overflow=hidden;html=1;whiteSpace=wrap;" vertex="1" parent="CvyXqUvLx3NW92NQcw2D-34">
                    <mxGeometry width="60" height="30" as="geometry">
                        <mxRectangle width="60" height="30" as="alternateBounds"/>
                    </mxGeometry>
                </mxCell>
                <mxCell id="CvyXqUvLx3NW92NQcw2D-36" value="교수명" style="shape=partialRectangle;connectable=0;fillColor=none;top=0;left=0;bottom=0;right=0;align=left;spacingLeft=6;overflow=hidden;html=1;whiteSpace=wrap;" vertex="1" parent="CvyXqUvLx3NW92NQcw2D-34">
                    <mxGeometry x="60" width="120" height="30" as="geometry">
                        <mxRectangle width="120" height="30" as="alternateBounds"/>
                    </mxGeometry>
                </mxCell>
                <mxCell id="CvyXqUvLx3NW92NQcw2D-40" value="과목" style="shape=table;startSize=30;container=1;collapsible=1;childLayout=tableLayout;fixedRows=1;rowLines=0;fontStyle=1;align=center;resizeLast=1;html=1;whiteSpace=wrap;" vertex="1" parent="1">
                    <mxGeometry x="-110" y="260" width="180" height="180" as="geometry"/>
                </mxCell>
                <mxCell id="CvyXqUvLx3NW92NQcw2D-41" value="" style="shape=tableRow;horizontal=0;startSize=0;swimlaneHead=0;swimlaneBody=0;fillColor=none;collapsible=0;dropTarget=0;points=[[0,0.5],[1,0.5]];portConstraint=eastwest;top=0;left=0;right=0;bottom=0;html=1;" vertex="1" parent="CvyXqUvLx3NW92NQcw2D-40">
                    <mxGeometry y="30" width="180" height="30" as="geometry"/>
                </mxCell>
                <mxCell id="CvyXqUvLx3NW92NQcw2D-42" value="PK" style="shape=partialRectangle;connectable=0;fillColor=none;top=0;left=0;bottom=0;right=0;fontStyle=1;overflow=hidden;html=1;whiteSpace=wrap;" vertex="1" parent="CvyXqUvLx3NW92NQcw2D-41">
                    <mxGeometry width="60" height="30" as="geometry">
                        <mxRectangle width="60" height="30" as="alternateBounds"/>
                    </mxGeometry>
                </mxCell>
                <mxCell id="CvyXqUvLx3NW92NQcw2D-43" value="과목코드" style="shape=partialRectangle;connectable=0;fillColor=none;top=0;left=0;bottom=0;right=0;align=left;spacingLeft=6;fontStyle=5;overflow=hidden;html=1;whiteSpace=wrap;" vertex="1" parent="CvyXqUvLx3NW92NQcw2D-41">
                    <mxGeometry x="60" width="120" height="30" as="geometry">
                        <mxRectangle width="120" height="30" as="alternateBounds"/>
                    </mxGeometry>
                </mxCell>
                <mxCell id="CvyXqUvLx3NW92NQcw2D-44" value="" style="shape=tableRow;horizontal=0;startSize=0;swimlaneHead=0;swimlaneBody=0;fillColor=none;collapsible=0;dropTarget=0;points=[[0,0.5],[1,0.5]];portConstraint=eastwest;top=0;left=0;right=0;bottom=1;html=1;" vertex="1" parent="CvyXqUvLx3NW92NQcw2D-40">
                    <mxGeometry y="60" width="180" height="30" as="geometry"/>
                </mxCell>
                <mxCell id="CvyXqUvLx3NW92NQcw2D-45" value="FK" style="shape=partialRectangle;connectable=0;fillColor=none;top=0;left=0;bottom=0;right=0;fontStyle=1;overflow=hidden;html=1;whiteSpace=wrap;" vertex="1" parent="CvyXqUvLx3NW92NQcw2D-44">
                    <mxGeometry width="60" height="30" as="geometry">
                        <mxRectangle width="60" height="30" as="alternateBounds"/>
                    </mxGeometry>
                </mxCell>
                <mxCell id="CvyXqUvLx3NW92NQcw2D-46" value="교수코드" style="shape=partialRectangle;connectable=0;fillColor=none;top=0;left=0;bottom=0;right=0;align=left;spacingLeft=6;fontStyle=5;overflow=hidden;html=1;whiteSpace=wrap;" vertex="1" parent="CvyXqUvLx3NW92NQcw2D-44">
                    <mxGeometry x="60" width="120" height="30" as="geometry">
                        <mxRectangle width="120" height="30" as="alternateBounds"/>
                    </mxGeometry>
                </mxCell>
                <mxCell id="CvyXqUvLx3NW92NQcw2D-47" value="" style="shape=tableRow;horizontal=0;startSize=0;swimlaneHead=0;swimlaneBody=0;fillColor=none;collapsible=0;dropTarget=0;points=[[0,0.5],[1,0.5]];portConstraint=eastwest;top=0;left=0;right=0;bottom=0;html=1;" vertex="1" parent="CvyXqUvLx3NW92NQcw2D-40">
                    <mxGeometry y="90" width="180" height="30" as="geometry"/>
                </mxCell>
                <mxCell id="CvyXqUvLx3NW92NQcw2D-48" value="" style="shape=partialRectangle;connectable=0;fillColor=none;top=0;left=0;bottom=0;right=0;editable=1;overflow=hidden;html=1;whiteSpace=wrap;" vertex="1" parent="CvyXqUvLx3NW92NQcw2D-47">
                    <mxGeometry width="60" height="30" as="geometry">
                        <mxRectangle width="60" height="30" as="alternateBounds"/>
                    </mxGeometry>
                </mxCell>
                <mxCell id="CvyXqUvLx3NW92NQcw2D-49" value="과목명" style="shape=partialRectangle;connectable=0;fillColor=none;top=0;left=0;bottom=0;right=0;align=left;spacingLeft=6;overflow=hidden;html=1;whiteSpace=wrap;" vertex="1" parent="CvyXqUvLx3NW92NQcw2D-47">
                    <mxGeometry x="60" width="120" height="30" as="geometry">
                        <mxRectangle width="120" height="30" as="alternateBounds"/>
                    </mxGeometry>
                </mxCell>
                <mxCell id="CvyXqUvLx3NW92NQcw2D-50" value="" style="shape=tableRow;horizontal=0;startSize=0;swimlaneHead=0;swimlaneBody=0;fillColor=none;collapsible=0;dropTarget=0;points=[[0,0.5],[1,0.5]];portConstraint=eastwest;top=0;left=0;right=0;bottom=0;html=1;" vertex="1" parent="CvyXqUvLx3NW92NQcw2D-40">
                    <mxGeometry y="120" width="180" height="30" as="geometry"/>
                </mxCell>
                <mxCell id="CvyXqUvLx3NW92NQcw2D-51" value="" style="shape=partialRectangle;connectable=0;fillColor=none;top=0;left=0;bottom=0;right=0;editable=1;overflow=hidden;html=1;whiteSpace=wrap;" vertex="1" parent="CvyXqUvLx3NW92NQcw2D-50">
                    <mxGeometry width="60" height="30" as="geometry">
                        <mxRectangle width="60" height="30" as="alternateBounds"/>
                    </mxGeometry>
                </mxCell>
                <mxCell id="CvyXqUvLx3NW92NQcw2D-52" value="시작일" style="shape=partialRectangle;connectable=0;fillColor=none;top=0;left=0;bottom=0;right=0;align=left;spacingLeft=6;overflow=hidden;html=1;whiteSpace=wrap;" vertex="1" parent="CvyXqUvLx3NW92NQcw2D-50">
                    <mxGeometry x="60" width="120" height="30" as="geometry">
                        <mxRectangle width="120" height="30" as="alternateBounds"/>
                    </mxGeometry>
                </mxCell>
                <mxCell id="CvyXqUvLx3NW92NQcw2D-53" value="" style="shape=tableRow;horizontal=0;startSize=0;swimlaneHead=0;swimlaneBody=0;fillColor=none;collapsible=0;dropTarget=0;points=[[0,0.5],[1,0.5]];portConstraint=eastwest;top=0;left=0;right=0;bottom=0;html=1;" vertex="1" parent="CvyXqUvLx3NW92NQcw2D-40">
                    <mxGeometry y="150" width="180" height="30" as="geometry"/>
                </mxCell>
                <mxCell id="CvyXqUvLx3NW92NQcw2D-54" value="" style="shape=partialRectangle;connectable=0;fillColor=none;top=0;left=0;bottom=0;right=0;editable=1;overflow=hidden;html=1;whiteSpace=wrap;" vertex="1" parent="CvyXqUvLx3NW92NQcw2D-53">
                    <mxGeometry width="60" height="30" as="geometry">
                        <mxRectangle width="60" height="30" as="alternateBounds"/>
                    </mxGeometry>
                </mxCell>
                <mxCell id="CvyXqUvLx3NW92NQcw2D-55" value="종료일" style="shape=partialRectangle;connectable=0;fillColor=none;top=0;left=0;bottom=0;right=0;align=left;spacingLeft=6;overflow=hidden;html=1;whiteSpace=wrap;" vertex="1" parent="CvyXqUvLx3NW92NQcw2D-53">
                    <mxGeometry x="60" width="120" height="30" as="geometry">
                        <mxRectangle width="120" height="30" as="alternateBounds"/>
                    </mxGeometry>
                </mxCell>
                <mxCell id="WMqJlVXb5y3sju8V8ulQ-1" value="수강" style="shape=table;startSize=30;container=1;collapsible=1;childLayout=tableLayout;fixedRows=1;rowLines=0;fontStyle=1;align=center;resizeLast=1;html=1;whiteSpace=wrap;" vertex="1" parent="1">
                    <mxGeometry x="260" y="100" width="180" height="180" as="geometry"/>
                </mxCell>
                <mxCell id="WMqJlVXb5y3sju8V8ulQ-2" value="" style="shape=tableRow;horizontal=0;startSize=0;swimlaneHead=0;swimlaneBody=0;fillColor=none;collapsible=0;dropTarget=0;points=[[0,0.5],[1,0.5]];portConstraint=eastwest;top=0;left=0;right=0;bottom=0;html=1;" vertex="1" parent="WMqJlVXb5y3sju8V8ulQ-1">
                    <mxGeometry y="30" width="180" height="30" as="geometry"/>
                </mxCell>
                <mxCell id="WMqJlVXb5y3sju8V8ulQ-3" value="PK" style="shape=partialRectangle;connectable=0;fillColor=none;top=0;left=0;bottom=0;right=0;fontStyle=1;overflow=hidden;html=1;whiteSpace=wrap;" vertex="1" parent="WMqJlVXb5y3sju8V8ulQ-2">
                    <mxGeometry width="60" height="30" as="geometry">
                        <mxRectangle width="60" height="30" as="alternateBounds"/>
                    </mxGeometry>
                </mxCell>
                <mxCell id="WMqJlVXb5y3sju8V8ulQ-4" value="수강번호" style="shape=partialRectangle;connectable=0;fillColor=none;top=0;left=0;bottom=0;right=0;align=left;spacingLeft=6;fontStyle=5;overflow=hidden;html=1;whiteSpace=wrap;" vertex="1" parent="WMqJlVXb5y3sju8V8ulQ-2">
                    <mxGeometry x="60" width="120" height="30" as="geometry">
                        <mxRectangle width="120" height="30" as="alternateBounds"/>
                    </mxGeometry>
                </mxCell>
                <mxCell id="WMqJlVXb5y3sju8V8ulQ-5" value="" style="shape=tableRow;horizontal=0;startSize=0;swimlaneHead=0;swimlaneBody=0;fillColor=none;collapsible=0;dropTarget=0;points=[[0,0.5],[1,0.5]];portConstraint=eastwest;top=0;left=0;right=0;bottom=1;html=1;" vertex="1" parent="WMqJlVXb5y3sju8V8ulQ-1">
                    <mxGeometry y="60" width="180" height="30" as="geometry"/>
                </mxCell>
                <mxCell id="WMqJlVXb5y3sju8V8ulQ-6" value="FK" style="shape=partialRectangle;connectable=0;fillColor=none;top=0;left=0;bottom=0;right=0;fontStyle=1;overflow=hidden;html=1;whiteSpace=wrap;" vertex="1" parent="WMqJlVXb5y3sju8V8ulQ-5">
                    <mxGeometry width="60" height="30" as="geometry">
                        <mxRectangle width="60" height="30" as="alternateBounds"/>
                    </mxGeometry>
                </mxCell>
                <mxCell id="WMqJlVXb5y3sju8V8ulQ-7" value="과목코드" style="shape=partialRectangle;connectable=0;fillColor=none;top=0;left=0;bottom=0;right=0;align=left;spacingLeft=6;fontStyle=5;overflow=hidden;html=1;whiteSpace=wrap;" vertex="1" parent="WMqJlVXb5y3sju8V8ulQ-5">
                    <mxGeometry x="60" width="120" height="30" as="geometry">
                        <mxRectangle width="120" height="30" as="alternateBounds"/>
                    </mxGeometry>
                </mxCell>
                <mxCell id="TNCsVIepSR0g9NEs4wHq-1" value="" style="shape=tableRow;horizontal=0;startSize=0;swimlaneHead=0;swimlaneBody=0;fillColor=none;collapsible=0;dropTarget=0;points=[[0,0.5],[1,0.5]];portConstraint=eastwest;top=0;left=0;right=0;bottom=1;html=1;" vertex="1" parent="WMqJlVXb5y3sju8V8ulQ-1">
                    <mxGeometry y="90" width="180" height="30" as="geometry"/>
                </mxCell>
                <mxCell id="TNCsVIepSR0g9NEs4wHq-2" value="FK" style="shape=partialRectangle;connectable=0;fillColor=none;top=0;left=0;bottom=0;right=0;fontStyle=1;overflow=hidden;html=1;whiteSpace=wrap;" vertex="1" parent="TNCsVIepSR0g9NEs4wHq-1">
                    <mxGeometry width="60" height="30" as="geometry">
                        <mxRectangle width="60" height="30" as="alternateBounds"/>
                    </mxGeometry>
                </mxCell>
                <mxCell id="TNCsVIepSR0g9NEs4wHq-3" value="학번" style="shape=partialRectangle;connectable=0;fillColor=none;top=0;left=0;bottom=0;right=0;align=left;spacingLeft=6;fontStyle=5;overflow=hidden;html=1;whiteSpace=wrap;" vertex="1" parent="TNCsVIepSR0g9NEs4wHq-1">
                    <mxGeometry x="60" width="120" height="30" as="geometry">
                        <mxRectangle width="120" height="30" as="alternateBounds"/>
                    </mxGeometry>
                </mxCell>
                <mxCell id="WMqJlVXb5y3sju8V8ulQ-8" value="" style="shape=tableRow;horizontal=0;startSize=0;swimlaneHead=0;swimlaneBody=0;fillColor=none;collapsible=0;dropTarget=0;points=[[0,0.5],[1,0.5]];portConstraint=eastwest;top=0;left=0;right=0;bottom=0;html=1;" vertex="1" parent="WMqJlVXb5y3sju8V8ulQ-1">
                    <mxGeometry y="120" width="180" height="30" as="geometry"/>
                </mxCell>
                <mxCell id="WMqJlVXb5y3sju8V8ulQ-9" value="" style="shape=partialRectangle;connectable=0;fillColor=none;top=0;left=0;bottom=0;right=0;editable=1;overflow=hidden;html=1;whiteSpace=wrap;" vertex="1" parent="WMqJlVXb5y3sju8V8ulQ-8">
                    <mxGeometry width="60" height="30" as="geometry">
                        <mxRectangle width="60" height="30" as="alternateBounds"/>
                    </mxGeometry>
                </mxCell>
                <mxCell id="WMqJlVXb5y3sju8V8ulQ-10" value="수강일자" style="shape=partialRectangle;connectable=0;fillColor=none;top=0;left=0;bottom=0;right=0;align=left;spacingLeft=6;overflow=hidden;html=1;whiteSpace=wrap;" vertex="1" parent="WMqJlVXb5y3sju8V8ulQ-8">
                    <mxGeometry x="60" width="120" height="30" as="geometry">
                        <mxRectangle width="120" height="30" as="alternateBounds"/>
                    </mxGeometry>
                </mxCell>
                <mxCell id="WMqJlVXb5y3sju8V8ulQ-11" value="" style="shape=tableRow;horizontal=0;startSize=0;swimlaneHead=0;swimlaneBody=0;fillColor=none;collapsible=0;dropTarget=0;points=[[0,0.5],[1,0.5]];portConstraint=eastwest;top=0;left=0;right=0;bottom=0;html=1;" vertex="1" parent="WMqJlVXb5y3sju8V8ulQ-1">
                    <mxGeometry y="150" width="180" height="30" as="geometry"/>
                </mxCell>
                <mxCell id="WMqJlVXb5y3sju8V8ulQ-12" value="" style="shape=partialRectangle;connectable=0;fillColor=none;top=0;left=0;bottom=0;right=0;editable=1;overflow=hidden;html=1;whiteSpace=wrap;" vertex="1" parent="WMqJlVXb5y3sju8V8ulQ-11">
                    <mxGeometry width="60" height="30" as="geometry">
                        <mxRectangle width="60" height="30" as="alternateBounds"/>
                    </mxGeometry>
                </mxCell>
                <mxCell id="WMqJlVXb5y3sju8V8ulQ-13" value="학점" style="shape=partialRectangle;connectable=0;fillColor=none;top=0;left=0;bottom=0;right=0;align=left;spacingLeft=6;overflow=hidden;html=1;whiteSpace=wrap;" vertex="1" parent="WMqJlVXb5y3sju8V8ulQ-11">
                    <mxGeometry x="60" width="120" height="30" as="geometry">
                        <mxRectangle width="120" height="30" as="alternateBounds"/>
                    </mxGeometry>
                </mxCell>
                <mxCell id="TNCsVIepSR0g9NEs4wHq-4" value="" style="edgeStyle=entityRelationEdgeStyle;fontSize=12;html=1;endArrow=ERoneToMany;entryX=1;entryY=0.5;entryDx=0;entryDy=0;exitX=0;exitY=0.5;exitDx=0;exitDy=0;" edge="1" parent="1" source="CvyXqUvLx3NW92NQcw2D-15" target="CvyXqUvLx3NW92NQcw2D-5">
                    <mxGeometry width="100" height="100" relative="1" as="geometry">
                        <mxPoint x="430" y="70" as="sourcePoint"/>
                        <mxPoint x="280" y="90" as="targetPoint"/>
                        <Array as="points">
                            <mxPoint x="390" y="90"/>
                        </Array>
                    </mxGeometry>
                </mxCell>
                <mxCell id="TNCsVIepSR0g9NEs4wHq-5" value="" style="edgeStyle=entityRelationEdgeStyle;fontSize=12;html=1;endArrow=ERoneToMany;entryX=1;entryY=0.5;entryDx=0;entryDy=0;exitX=0;exitY=0.5;exitDx=0;exitDy=0;" edge="1" parent="1" source="CvyXqUvLx3NW92NQcw2D-28" target="CvyXqUvLx3NW92NQcw2D-44">
                    <mxGeometry width="100" height="100" relative="1" as="geometry">
                        <mxPoint x="620" y="65" as="sourcePoint"/>
                        <mxPoint x="80" y="65" as="targetPoint"/>
                        <Array as="points">
                            <mxPoint x="400" y="100"/>
                            <mxPoint x="350" y="390"/>
                        </Array>
                    </mxGeometry>
                </mxCell>
                <mxCell id="TNCsVIepSR0g9NEs4wHq-6" value="" style="edgeStyle=entityRelationEdgeStyle;fontSize=12;html=1;endArrow=ERoneToMany;exitX=1;exitY=0.5;exitDx=0;exitDy=0;entryX=1;entryY=0.5;entryDx=0;entryDy=0;" edge="1" parent="1" target="CvyXqUvLx3NW92NQcw2D-31">
                    <mxGeometry width="100" height="100" relative="1" as="geometry">
                        <mxPoint x="790" y="50" as="sourcePoint"/>
                        <mxPoint x="790" y="395" as="targetPoint"/>
                        <Array as="points">
                            <mxPoint x="410" y="105"/>
                            <mxPoint x="360" y="395"/>
                            <mxPoint x="840" y="245"/>
                            <mxPoint x="830" y="305"/>
                        </Array>
                    </mxGeometry>
                </mxCell>
                <mxCell id="TNCsVIepSR0g9NEs4wHq-9" value="" style="edgeStyle=entityRelationEdgeStyle;fontSize=12;html=1;endArrow=ERoneToMany;entryX=0;entryY=0.5;entryDx=0;entryDy=0;exitX=1;exitY=0.5;exitDx=0;exitDy=0;" edge="1" parent="1" source="CvyXqUvLx3NW92NQcw2D-2" target="TNCsVIepSR0g9NEs4wHq-1">
                    <mxGeometry width="100" height="100" relative="1" as="geometry">
                        <mxPoint x="90" y="40" as="sourcePoint"/>
                        <mxPoint x="440" y="130" as="targetPoint"/>
                    </mxGeometry>
                </mxCell>
                <mxCell id="TNCsVIepSR0g9NEs4wHq-10" value="" style="edgeStyle=entityRelationEdgeStyle;fontSize=12;html=1;endArrow=ERoneToMany;exitX=1;exitY=0.5;exitDx=0;exitDy=0;entryX=0;entryY=0.5;entryDx=0;entryDy=0;" edge="1" parent="1" source="CvyXqUvLx3NW92NQcw2D-41">
                    <mxGeometry width="100" height="100" relative="1" as="geometry">
                        <mxPoint x="70" y="250" as="sourcePoint"/>
                        <mxPoint x="260" y="180" as="targetPoint"/>
                    </mxGeometry>
                </mxCell>
            </root>
        </mxGraphModel>
    </diagram>
</mxfile>